<svg width="421" height="372" viewBox="0 0 421 372" fill="none" xmlns="http://www.w3.org/2000/svg">
<g clip-path="url(#clip0_10_1945)">
<path d="M462 327.4H-38V327.65H462V327.4Z" fill="#FAFAFA"/>
<path d="M385.22 338.28H360.39V338.53H385.22V338.28Z" fill="#E0E0E0"/>
<path d="M400.95 338.15H392.56V338.4H400.95V338.15Z" fill="#E0E0E0"/>
<path d="M294.03 339.83H242.04V340.08H294.03V339.83Z" fill="#E0E0E0"/>
<path d="M229.77 342.54H222.02V342.79H229.77V342.54Z" fill="#E0E0E0"/>
<path d="M73.9501 334.63H60.5901V334.88H73.9501V334.63Z" fill="#E0E0E0"/>
<path d="M147.26 334.63H79.5V334.88H147.26V334.63Z" fill="#E0E0E0"/>
<path d="M89.5001 340.67H42.3601V340.92H89.5001V340.67Z" fill="#E0E0E0"/>
<path d="M199 282.8H5.90996C4.39731 282.797 2.94752 282.195 1.87885 281.124C0.810174 280.054 0.209959 278.603 0.209961 277.09V5.66C0.223129 4.15603 0.829155 2.71798 1.8964 1.65822C2.96365 0.598458 4.40593 0.00257639 5.90996 0H199C200.514 0 201.967 0.601588 203.038 1.67242C204.108 2.74325 204.71 4.19561 204.71 5.71V277.09C204.71 278.604 204.108 280.057 203.038 281.128C201.967 282.198 200.514 282.8 199 282.8ZM5.90996 0.200001C4.46361 0.20265 3.07741 0.779065 2.05562 1.80273C1.03384 2.82639 0.459959 4.21365 0.459961 5.66V277.09C0.459959 278.536 1.03384 279.924 2.05562 280.947C3.07741 281.971 4.46361 282.547 5.90996 282.55H199C200.447 282.547 201.834 281.971 202.858 280.948C203.881 279.924 204.457 278.537 204.46 277.09V5.66C204.457 4.21273 203.881 2.82549 202.858 1.80212C201.834 0.77874 200.447 0.202644 199 0.200001H5.90996Z" fill="#E0E0E0"/>
<path d="M415.31 282.8H222.21C220.696 282.797 219.246 282.195 218.175 281.125C217.105 280.054 216.503 278.604 216.5 277.09V5.66C216.516 4.15511 217.124 2.71708 218.193 1.65759C219.262 0.598109 220.705 0.00254829 222.21 0H415.31C416.812 0.0052045 418.252 0.602249 419.317 1.66173C420.382 2.72121 420.987 4.15775 421 5.66V277.09C421 278.601 420.401 280.05 419.335 281.121C418.268 282.191 416.821 282.795 415.31 282.8ZM222.21 0.200001C220.763 0.202644 219.375 0.77874 218.352 1.80212C217.329 2.82549 216.753 4.21273 216.75 5.66V277.09C216.753 278.537 217.329 279.924 218.352 280.948C219.375 281.971 220.763 282.547 222.21 282.55H415.31C416.757 282.547 418.145 281.971 419.168 280.948C420.191 279.924 420.767 278.537 420.77 277.09V5.66C420.767 4.21273 420.191 2.82549 419.168 1.80212C418.145 0.77874 416.757 0.202644 415.31 0.200001H222.21Z" fill="#E0E0E0"/>
<path d="M303.75 327.4H339.08V263.28H303.75V327.4Z" fill="#E0E0E0"/>
<path d="M381.23 263.28H339.08V327.4H381.23V263.28Z" fill="#EBEBEB"/>
<g style="mix-blend-mode:multiply" opacity="0.7">
<path d="M303.75 271.61H381.6V268.71H303.75V271.61Z" fill="#E0E0E0"/>
</g>
<path d="M301.8 269.92H339.08V256.56H301.8V269.92Z" fill="#E0E0E0"/>
<path d="M383.18 256.57H339.08V269.93H383.18V256.57Z" fill="#EBEBEB"/>
<path d="M156.06 18.99H37.1299V160.89H156.06V18.99Z" fill="#E0E0E0"/>
<path d="M161.51 18.99H39.6799V160.89H161.51V18.99Z" fill="#EBEBEB"/>
<path d="M156.06 160.89H37.1299V171H156.06V160.89Z" fill="#E0E0E0"/>
<path d="M170.57 160.89H48.74V171H170.57V160.89Z" fill="#EBEBEB"/>
<path d="M153.89 153.27V26.61L47.2999 26.61L47.2999 153.27H153.89Z" fill="#F5F5F5"/>
<path d="M60.3799 153.27L105.09 26.61H126.19L81.4899 153.27H60.3799Z" fill="#FAFAFA"/>
<path d="M50.82 110.3C50.6759 110.297 50.5386 110.238 50.4376 110.135C50.3366 110.033 50.28 109.894 50.28 109.75V31.56C50.28 31.4168 50.3369 31.2794 50.4382 31.1782C50.5395 31.0769 50.6768 31.02 50.82 31.02C50.9642 31.02 51.1026 31.0765 51.2054 31.1775C51.3083 31.2785 51.3674 31.4159 51.37 31.56V109.75C51.37 109.896 51.3121 110.036 51.2089 110.139C51.1058 110.242 50.9659 110.3 50.82 110.3Z" fill="#EBEBEB"/>
<path d="M86.02 153.27L130.73 26.61H138.96L94.25 153.27H86.02Z" fill="#FAFAFA"/>
<path d="M153.88 153.27V26.61H152.91V153.27H153.88Z" fill="#E0E0E0"/>
<path d="M163.3 36.35H44.3799L43.6799 29.57H162.6L163.3 36.35Z" fill="#E0E0E0"/>
<path d="M163.3 41.32H44.3799L43.6799 34.53H162.6L163.3 41.32Z" fill="#E0E0E0"/>
<path d="M163.3 47.28H44.3799L43.6799 40.49H162.6L163.3 47.28Z" fill="#E0E0E0"/>
<path d="M163.3 53.91H44.3799L43.6799 47.13H162.6L163.3 53.91Z" fill="#E0E0E0"/>
<path d="M163.3 61.86H44.3799L43.6799 55.07H162.6L163.3 61.86Z" fill="#E0E0E0"/>
<path d="M163.3 70.79H44.3799L43.6799 64.01H162.6L163.3 70.79Z" fill="#E0E0E0"/>
<path d="M372.36 18.99H253.43V160.89H372.36V18.99Z" fill="#E0E0E0"/>
<path d="M377.8 18.99H255.97V160.89H377.8V18.99Z" fill="#EBEBEB"/>
<path d="M372.36 160.89H253.43V171H372.36V160.89Z" fill="#E0E0E0"/>
<path d="M386.87 160.89H265.04V171H386.87V160.89Z" fill="#EBEBEB"/>
<path d="M370.19 153.27V26.61L263.6 26.61V153.27H370.19Z" fill="#F5F5F5"/>
<path d="M276.68 153.27L321.39 26.61H342.49L297.78 153.27H276.68Z" fill="#FAFAFA"/>
<path d="M267.12 110.3C266.976 110.297 266.839 110.238 266.738 110.135C266.637 110.033 266.58 109.894 266.58 109.75V31.56C266.58 31.4168 266.637 31.2794 266.738 31.1782C266.84 31.0769 266.977 31.02 267.12 31.02C267.263 31.02 267.401 31.0769 267.502 31.1782C267.603 31.2794 267.66 31.4168 267.66 31.56V109.75C267.66 109.894 267.604 110.033 267.503 110.135C267.402 110.238 267.264 110.297 267.12 110.3Z" fill="#EBEBEB"/>
<path d="M302.32 153.27L347.03 26.61H355.25L310.55 153.27H302.32Z" fill="#FAFAFA"/>
<path d="M370.18 153.27V26.61H369.21V153.27H370.18Z" fill="#E0E0E0"/>
<path d="M379.6 36.35H260.68L259.97 29.57H378.9L379.6 36.35Z" fill="#E0E0E0"/>
<path d="M379.6 41.32H260.68L259.97 34.53H378.9L379.6 41.32Z" fill="#E0E0E0"/>
<path d="M379.6 47.28H260.68L259.97 40.49H378.9L379.6 47.28Z" fill="#E0E0E0"/>
<path d="M379.6 53.91H260.68L259.97 47.13H378.9L379.6 53.91Z" fill="#E0E0E0"/>
<path d="M379.6 61.86H260.68L259.97 55.07H378.9L379.6 61.86Z" fill="#E0E0E0"/>
<path d="M379.6 70.79H260.68L259.97 64.01H378.9L379.6 70.79Z" fill="#E0E0E0"/>
<path d="M280.04 237.46H256.29V327.4H280.04V237.46Z" fill="#E0E0E0"/>
<path d="M275.52 327.4H280.03V316.38H270.79L275.52 327.4Z" fill="#F5F5F5"/>
<path d="M49.5601 237.46H25.8101V327.4H49.5601V237.46Z" fill="#E0E0E0"/>
<path d="M280.04 237.46H45.6201V321.34H280.04V237.46Z" fill="#F5F5F5"/>
<path d="M164.34 241.66V301.56H276.54V241.66H164.34Z" fill="#E0E0E0"/>
<path d="M49.1201 241.66L49.1201 301.56H161.32V241.66H49.1201Z" fill="#E0E0E0"/>
<path d="M276.53 314.22V307.55H164.33V314.22H276.53Z" fill="#E0E0E0"/>
<path d="M161.31 314.23V307.56H49.1101V314.23H161.31Z" fill="#E0E0E0"/>
<path d="M144.73 245.24H65.7301C63.976 245.241 62.2399 244.888 60.6261 244.2C59.0124 243.513 57.5544 242.506 56.3401 241.24H154.16C152.941 242.511 151.477 243.52 149.856 244.208C148.235 244.896 146.491 245.247 144.73 245.24Z" fill="#F5F5F5"/>
<path d="M260.37 245.24H181.37C179.616 245.241 177.88 244.888 176.266 244.2C174.652 243.513 173.194 242.506 171.98 241.24H269.8C268.583 242.513 267.119 243.525 265.498 244.213C263.876 244.901 262.131 245.25 260.37 245.24Z" fill="#F5F5F5"/>
<path d="M50.1301 327.4H45.6101V316.38H54.8501L50.1301 327.4Z" fill="#F5F5F5"/>
<g style="mix-blend-mode:multiply" opacity="0.4">
<path d="M217.56 182.24H191.12V237.46H217.56V182.24Z" fill="#E0E0E0"/>
</g>
<path d="M239.77 237.46H195.02L190.81 177.83H235.55L239.77 237.46Z" fill="#E0E0E0"/>
<path d="M244.86 237.46H196.29L192.08 177.83H240.64L244.86 237.46Z" fill="#F5F5F5"/>
<path d="M198.54 235.18L194.65 180.11H238.4L242.3 235.18H198.54Z" fill="#FAFAFA"/>
<path d="M209.13 222.85L206.98 192.44H227.81L229.96 222.85H209.13Z" fill="#F5F5F5"/>
<path d="M121.35 227.67C127.768 227.67 132.97 222.468 132.97 216.05C132.97 209.632 127.768 204.43 121.35 204.43C114.932 204.43 109.73 209.632 109.73 216.05C109.73 222.468 114.932 227.67 121.35 227.67Z" fill="#EBEBEB"/>
<path d="M141.25 233.21C147.667 233.21 152.87 228.008 152.87 221.59C152.87 215.172 147.667 209.97 141.25 209.97C134.832 209.97 129.63 215.172 129.63 221.59C129.63 228.008 134.832 233.21 141.25 233.21Z" fill="#EBEBEB"/>
<path d="M161.023 223.904C164.98 222.274 166.867 217.744 165.237 213.787C163.606 209.829 159.076 207.943 155.119 209.573C151.161 211.203 149.275 215.733 150.905 219.691C152.536 223.648 157.065 225.535 161.023 223.904Z" fill="#EBEBEB"/>
<path d="M140.641 210.267C141.325 206.042 138.455 202.062 134.23 201.378C130.004 200.693 126.024 203.564 125.34 207.789C124.656 212.014 127.526 215.994 131.751 216.678C135.977 217.363 139.956 214.492 140.641 210.267Z" fill="#EBEBEB"/>
<path d="M102.77 219.51C102.77 219.51 103.68 237.46 138.55 237.46C173.42 237.46 174.33 219.51 174.33 219.51H102.77Z" fill="#E0E0E0"/>
<path d="M70.5699 231.31C70.5699 231.31 59.2099 211.73 74.9699 196.14C74.9699 196.14 79.0799 198.82 78.9699 202.43C78.8599 206.04 74.5599 206.94 75.4899 209.95C76.4199 212.96 80.4899 215.95 77.8399 218.4C75.1899 220.85 78.2699 223.09 78.0899 226.14C77.9099 229.19 70.5699 231.31 70.5699 231.31Z" fill="#E0E0E0"/>
<path d="M71.43 233.1C71.43 233.1 76.03 210.94 56.16 201.1C56.16 201.1 53.1 204.95 54.3 208.35C55.5 211.75 59.9 211.24 59.97 214.35C60.04 217.46 57.07 221.59 60.41 223.1C63.75 224.61 61.48 227.7 62.61 230.53C63.74 233.36 71.43 233.1 71.43 233.1Z" fill="#E0E0E0"/>
<path d="M54 222.85C54 222.85 54.38 237.46 68.86 237.46C83.34 237.46 83.72 222.85 83.72 222.85H54Z" fill="#EBEBEB"/>
<path d="M212 372.56C319.083 372.56 405.89 367.492 405.89 361.24C405.89 354.988 319.083 349.92 212 349.92C104.918 349.92 18.1101 354.988 18.1101 361.24C18.1101 367.492 104.918 372.56 212 372.56Z" fill="#F5F5F5"/>
<path d="M142.45 217.44C141.857 217.401 141.301 217.138 140.895 216.705C140.489 216.271 140.263 215.699 140.263 215.105C140.263 214.511 140.489 213.939 140.895 213.505C141.301 213.072 141.857 212.809 142.45 212.77C148.17 212.77 152.99 204.58 152.99 194.88C153.029 194.287 153.292 193.731 153.725 193.325C154.159 192.919 154.731 192.693 155.325 192.693C155.919 192.693 156.491 192.919 156.925 193.325C157.358 193.731 157.621 194.287 157.66 194.88C157.66 207.53 151 217.44 142.45 217.44Z" fill="#FF0831"/>
<path d="M177.74 217.44C177.147 217.401 176.591 217.138 176.185 216.705C175.779 216.271 175.553 215.699 175.553 215.105C175.553 214.511 175.779 213.939 176.185 213.505C176.591 213.072 177.147 212.809 177.74 212.77C183.46 212.77 188.28 204.58 188.28 194.88C188.319 194.287 188.582 193.731 189.015 193.325C189.449 192.919 190.021 192.693 190.615 192.693C191.209 192.693 191.781 192.919 192.215 193.325C192.648 193.731 192.911 194.287 192.95 194.88C193 207.53 186.27 217.44 177.74 217.44Z" fill="#FF0831"/>
<path d="M213 217.44C212.407 217.401 211.851 217.138 211.445 216.705C211.039 216.271 210.813 215.699 210.813 215.105C210.813 214.511 211.039 213.939 211.445 213.505C211.851 213.072 212.407 212.809 213 212.77C218.71 212.77 223.54 204.58 223.54 194.88C223.54 194.262 223.785 193.669 224.222 193.232C224.659 192.795 225.252 192.55 225.87 192.55C226.488 192.55 227.08 192.795 227.517 193.232C227.954 193.669 228.2 194.262 228.2 194.88C228.23 207.53 221.56 217.44 213 217.44Z" fill="#FF0831"/>
<path d="M248.32 217.44C248.001 217.461 247.68 217.416 247.379 217.308C247.077 217.2 246.801 217.032 246.567 216.813C246.334 216.594 246.148 216.329 246.02 216.036C245.893 215.742 245.827 215.425 245.827 215.105C245.827 214.785 245.893 214.468 246.02 214.174C246.148 213.881 246.334 213.616 246.567 213.397C246.801 213.178 247.077 213.01 247.379 212.902C247.68 212.794 248.001 212.749 248.32 212.77C254.03 212.77 258.86 204.58 258.86 194.88C258.86 194.262 259.106 193.669 259.542 193.232C259.979 192.795 260.572 192.55 261.19 192.55C261.808 192.55 262.401 192.795 262.838 193.232C263.275 193.669 263.52 194.262 263.52 194.88C263.52 207.53 256.84 217.44 248.32 217.44Z" fill="#FF0831"/>
<path d="M283.6 217.44C283.007 217.401 282.451 217.138 282.045 216.705C281.639 216.271 281.413 215.699 281.413 215.105C281.413 214.511 281.639 213.939 282.045 213.505C282.451 213.072 283.007 212.809 283.6 212.77C289.32 212.77 294.14 204.58 294.14 194.88C294.179 194.287 294.442 193.731 294.875 193.325C295.309 192.919 295.881 192.693 296.475 192.693C297.069 192.693 297.641 192.919 298.075 193.325C298.508 193.731 298.771 194.287 298.81 194.88C298.81 207.53 292.13 217.44 283.6 217.44Z" fill="#FF0831"/>
<path d="M318.89 217.44C318.297 217.401 317.741 217.138 317.335 216.705C316.929 216.271 316.703 215.699 316.703 215.105C316.703 214.511 316.929 213.939 317.335 213.505C317.741 213.072 318.297 212.809 318.89 212.77C324.6 212.77 329.43 204.58 329.43 194.88C329.469 194.287 329.732 193.731 330.165 193.325C330.599 192.919 331.171 192.693 331.765 192.693C332.359 192.693 332.931 192.919 333.365 193.325C333.798 193.731 334.061 194.287 334.1 194.88C334.1 207.53 327.42 217.44 318.89 217.44Z" fill="#FF0831"/>
<g opacity="0.3">
<path d="M142.45 217.44C141.857 217.401 141.301 217.138 140.895 216.705C140.489 216.271 140.263 215.699 140.263 215.105C140.263 214.511 140.489 213.939 140.895 213.505C141.301 213.072 141.857 212.809 142.45 212.77C148.17 212.77 152.99 204.58 152.99 194.88C153.029 194.287 153.292 193.731 153.725 193.325C154.159 192.919 154.731 192.693 155.325 192.693C155.919 192.693 156.491 192.919 156.925 193.325C157.358 193.731 157.621 194.287 157.66 194.88C157.66 207.53 151 217.44 142.45 217.44Z" fill="black"/>
<path d="M177.74 217.44C177.147 217.401 176.591 217.138 176.185 216.705C175.779 216.271 175.553 215.699 175.553 215.105C175.553 214.511 175.779 213.939 176.185 213.505C176.591 213.072 177.147 212.809 177.74 212.77C183.46 212.77 188.28 204.58 188.28 194.88C188.319 194.287 188.582 193.731 189.015 193.325C189.449 192.919 190.021 192.693 190.615 192.693C191.209 192.693 191.781 192.919 192.215 193.325C192.648 193.731 192.911 194.287 192.95 194.88C193 207.53 186.27 217.44 177.74 217.44Z" fill="black"/>
<path d="M213 217.44C212.407 217.401 211.851 217.138 211.445 216.705C211.039 216.271 210.813 215.699 210.813 215.105C210.813 214.511 211.039 213.939 211.445 213.505C211.851 213.072 212.407 212.809 213 212.77C218.71 212.77 223.54 204.58 223.54 194.88C223.54 194.262 223.786 193.669 224.223 193.232C224.66 192.795 225.252 192.55 225.87 192.55C226.488 192.55 227.081 192.795 227.518 193.232C227.955 193.669 228.2 194.262 228.2 194.88C228.23 207.53 221.56 217.44 213 217.44Z" fill="black"/>
<path d="M248.32 217.44C248.001 217.461 247.68 217.416 247.379 217.308C247.077 217.2 246.801 217.032 246.567 216.813C246.334 216.594 246.148 216.329 246.02 216.036C245.893 215.742 245.827 215.425 245.827 215.105C245.827 214.785 245.893 214.468 246.02 214.174C246.148 213.881 246.334 213.616 246.567 213.397C246.801 213.178 247.077 213.01 247.379 212.902C247.68 212.794 248.001 212.749 248.32 212.77C254.03 212.77 258.86 204.58 258.86 194.88C258.86 194.262 259.106 193.669 259.542 193.232C259.979 192.795 260.572 192.55 261.19 192.55C261.808 192.55 262.401 192.795 262.838 193.232C263.275 193.669 263.52 194.262 263.52 194.88C263.52 207.53 256.84 217.44 248.32 217.44Z" fill="black"/>
<path d="M283.6 217.44C283.007 217.401 282.451 217.138 282.045 216.705C281.639 216.271 281.413 215.699 281.413 215.105C281.413 214.511 281.639 213.939 282.045 213.505C282.451 213.072 283.007 212.809 283.6 212.77C289.32 212.77 294.14 204.58 294.14 194.88C294.179 194.287 294.442 193.731 294.875 193.325C295.309 192.919 295.881 192.693 296.475 192.693C297.069 192.693 297.641 192.919 298.075 193.325C298.508 193.731 298.771 194.287 298.81 194.88C298.81 207.53 292.13 217.44 283.6 217.44Z" fill="black"/>
<path d="M318.89 217.44C318.297 217.401 317.741 217.138 317.335 216.705C316.929 216.271 316.703 215.699 316.703 215.105C316.703 214.511 316.929 213.939 317.335 213.505C317.741 213.072 318.297 212.809 318.89 212.77C324.6 212.77 329.43 204.58 329.43 194.88C329.469 194.287 329.732 193.731 330.165 193.325C330.599 192.919 331.171 192.693 331.765 192.693C332.359 192.693 332.931 192.919 333.365 193.325C333.798 193.731 334.061 194.287 334.1 194.88C334.1 207.53 327.42 217.44 318.89 217.44Z" fill="black"/>
</g>
<path d="M120.34 197.27H347.52C350.566 197.331 353.485 198.501 355.729 200.562C357.974 202.622 359.389 205.43 359.71 208.46L372.29 350.29C372.443 351.713 372.292 353.153 371.847 354.513C371.402 355.873 370.674 357.124 369.71 358.182C368.745 359.24 367.568 360.081 366.254 360.649C364.94 361.218 363.521 361.501 362.09 361.48H134.9C131.855 361.415 128.939 360.243 126.695 358.183C124.452 356.124 123.035 353.318 122.71 350.29L110.14 208.46C109.985 207.037 110.135 205.596 110.579 204.235C111.023 202.874 111.752 201.623 112.716 200.565C113.681 199.507 114.86 198.666 116.174 198.098C117.488 197.53 118.908 197.247 120.34 197.27Z" fill="#FF0831"/>
<path opacity="0.4" d="M120.34 197.27H347.52C350.566 197.331 353.485 198.501 355.729 200.562C357.974 202.622 359.389 205.43 359.71 208.46L372.29 350.29C372.443 351.713 372.292 353.153 371.847 354.513C371.402 355.873 370.674 357.124 369.71 358.182C368.745 359.24 367.568 360.081 366.254 360.649C364.94 361.218 363.521 361.501 362.09 361.48H134.9C131.855 361.415 128.939 360.243 126.695 358.183C124.452 356.124 123.035 353.318 122.71 350.29L110.14 208.46C109.985 207.037 110.135 205.596 110.579 204.235C111.023 202.874 111.752 201.623 112.716 200.565C113.681 199.507 114.86 198.666 116.174 198.098C117.488 197.53 118.908 197.247 120.34 197.27Z" fill="#FAFAFA"/>
<path d="M345.63 197.27H118.44C115.435 197.306 112.556 198.481 110.384 200.558C108.212 202.635 106.91 205.46 106.74 208.46L100.34 350.29C100.264 351.735 100.483 353.18 100.985 354.537C101.487 355.894 102.261 357.135 103.259 358.182C104.257 359.23 105.458 360.063 106.789 360.63C108.12 361.197 109.553 361.486 111 361.48H338.21C341.215 361.444 344.094 360.269 346.266 358.192C348.438 356.115 349.74 353.29 349.91 350.29L356.32 208.46C356.395 207.013 356.173 205.566 355.669 204.207C355.165 202.849 354.389 201.608 353.388 200.56C352.387 199.512 351.182 198.68 349.848 198.114C348.514 197.549 347.079 197.261 345.63 197.27Z" fill="#FF0831"/>
<path opacity="0.2" d="M345.63 197.27H118.44C115.435 197.306 112.556 198.481 110.384 200.558C108.212 202.635 106.91 205.46 106.74 208.46L100.34 350.29C100.264 351.735 100.483 353.18 100.985 354.537C101.487 355.894 102.261 357.135 103.259 358.182C104.257 359.23 105.458 360.063 106.789 360.63C108.12 361.197 109.553 361.486 111 361.48H338.21C341.215 361.444 344.094 360.269 346.266 358.192C348.438 356.115 349.74 353.29 349.91 350.29L356.32 208.46C356.395 207.013 356.173 205.566 355.669 204.207C355.165 202.849 354.389 201.608 353.388 200.56C352.387 199.512 351.182 198.68 349.848 198.114C348.514 197.549 347.079 197.261 345.63 197.27Z" fill="#FAFAFA"/>
<path d="M122.61 324L127.9 206.87C127.963 205.721 128.462 204.639 129.294 203.844C130.126 203.049 131.229 202.601 132.38 202.59H331.21C331.764 202.587 332.313 202.696 332.824 202.913C333.334 203.129 333.795 203.447 334.178 203.848C334.561 204.249 334.858 204.724 335.051 205.243C335.244 205.763 335.329 206.316 335.3 206.87L330 324C329.936 325.149 329.438 326.231 328.606 327.026C327.774 327.821 326.671 328.269 325.52 328.28H126.7C126.146 328.283 125.596 328.174 125.086 327.957C124.576 327.741 124.115 327.423 123.732 327.022C123.349 326.621 123.052 326.146 122.859 325.627C122.666 325.107 122.581 324.554 122.61 324Z" fill="#FF0831"/>
<path opacity="0.1" d="M122.61 324L127.9 206.87C127.963 205.721 128.462 204.639 129.294 203.844C130.126 203.049 131.229 202.601 132.38 202.59H331.21C331.764 202.587 332.313 202.696 332.824 202.913C333.334 203.129 333.795 203.447 334.178 203.848C334.561 204.249 334.858 204.724 335.051 205.243C335.244 205.763 335.329 206.316 335.3 206.87L330 324C329.936 325.149 329.438 326.231 328.606 327.026C327.774 327.821 326.671 328.269 325.52 328.28H126.7C126.146 328.283 125.596 328.174 125.086 327.957C124.576 327.741 124.115 327.423 123.732 327.022C123.349 326.621 123.052 326.146 122.859 325.627C122.666 325.107 122.581 324.554 122.61 324Z" fill="#FAFAFA"/>
<path opacity="0.1" d="M117 333.56L122.55 210.56C122.614 209.354 123.136 208.217 124.009 207.383C124.883 206.548 126.042 206.079 127.25 206.07H336.05C336.632 206.065 337.209 206.179 337.745 206.406C338.281 206.632 338.764 206.966 339.166 207.387C339.568 207.808 339.88 208.306 340.082 208.852C340.284 209.398 340.371 209.979 340.34 210.56L334.78 333.56C334.717 334.766 334.196 335.902 333.325 336.738C332.454 337.574 331.297 338.046 330.09 338.06H121.27C120.689 338.064 120.113 337.948 119.578 337.72C119.043 337.492 118.56 337.157 118.16 336.735C117.759 336.314 117.45 335.814 117.251 335.268C117.051 334.722 116.966 334.14 117 333.56Z" fill="black"/>
<path d="M111.84 343.48L117.63 215.18C117.708 213.925 118.255 212.746 119.163 211.877C120.071 211.008 121.273 210.513 122.53 210.49H340.34C340.948 210.485 341.55 210.605 342.11 210.841C342.669 211.078 343.175 211.427 343.594 211.866C344.014 212.306 344.339 212.826 344.55 213.396C344.761 213.966 344.853 214.573 344.82 215.18L339 343.48C338.922 344.735 338.375 345.914 337.467 346.783C336.559 347.652 335.357 348.147 334.1 348.17H116.32C115.712 348.176 115.109 348.058 114.549 347.822C113.988 347.586 113.482 347.237 113.062 346.797C112.642 346.357 112.317 345.836 112.107 345.265C111.897 344.695 111.806 344.087 111.84 343.48Z" fill="#FAFAFA"/>
<path d="M318.86 218.18C318.45 218.181 318.045 218.098 317.669 217.936C317.292 217.774 316.953 217.537 316.672 217.239C316.391 216.941 316.174 216.588 316.034 216.203C315.895 215.818 315.835 215.409 315.86 215C315.898 214.198 316.241 213.44 316.819 212.883C317.398 212.325 318.167 212.009 318.97 212C319.379 211.999 319.785 212.082 320.161 212.244C320.537 212.406 320.876 212.643 321.158 212.941C321.439 213.239 321.656 213.592 321.795 213.977C321.935 214.362 321.994 214.771 321.97 215.18C321.932 215.982 321.588 216.74 321.01 217.297C320.432 217.855 319.663 218.171 318.86 218.18Z" fill="#FF0831"/>
<path d="M283.57 218.18C283.16 218.181 282.755 218.098 282.379 217.936C282.002 217.774 281.663 217.537 281.382 217.239C281.101 216.941 280.884 216.588 280.744 216.203C280.605 215.818 280.545 215.409 280.57 215C280.608 214.198 280.951 213.44 281.529 212.883C282.107 212.325 282.877 212.009 283.68 212C284.089 211.999 284.495 212.082 284.871 212.244C285.247 212.406 285.586 212.643 285.867 212.941C286.148 213.239 286.366 213.592 286.505 213.977C286.645 214.362 286.704 214.771 286.68 215.18C286.644 215.983 286.302 216.742 285.723 217.3C285.144 217.858 284.374 218.173 283.57 218.18Z" fill="#FF0831"/>
<path d="M248.28 218.18C247.87 218.181 247.465 218.098 247.089 217.936C246.713 217.774 246.374 217.537 246.092 217.239C245.811 216.941 245.594 216.588 245.455 216.203C245.315 215.818 245.255 215.409 245.28 215C245.321 214.199 245.665 213.442 246.242 212.885C246.82 212.328 247.588 212.012 248.39 212C248.8 211.999 249.205 212.082 249.581 212.244C249.957 212.406 250.297 212.643 250.578 212.941C250.859 213.239 251.076 213.592 251.216 213.977C251.355 214.362 251.415 214.771 251.39 215.18C251.354 215.983 251.012 216.742 250.433 217.3C249.855 217.858 249.084 218.173 248.28 218.18Z" fill="#FF0831"/>
<path d="M213 218.18C212.59 218.181 212.185 218.098 211.809 217.936C211.433 217.774 211.094 217.537 210.812 217.239C210.531 216.941 210.314 216.588 210.175 216.203C210.035 215.818 209.975 215.409 210 215C210.043 214.198 210.389 213.442 210.968 212.885C211.548 212.328 212.317 212.012 213.12 212C213.53 211.999 213.935 212.082 214.311 212.244C214.687 212.406 215.027 212.643 215.308 212.941C215.589 213.239 215.806 213.592 215.945 213.977C216.085 214.362 216.145 214.771 216.12 215.18C216.084 215.985 215.74 216.745 215.16 217.303C214.579 217.862 213.806 218.176 213 218.18Z" fill="#FF0831"/>
<path d="M177.71 218.18C177.3 218.181 176.895 218.098 176.519 217.936C176.143 217.774 175.803 217.537 175.522 217.239C175.241 216.941 175.024 216.588 174.885 216.203C174.745 215.818 174.685 215.409 174.71 215C174.748 214.198 175.091 213.44 175.669 212.883C176.248 212.325 177.017 212.009 177.82 212C178.23 211.999 178.635 212.082 179.011 212.244C179.387 212.406 179.727 212.643 180.008 212.941C180.289 213.239 180.506 213.592 180.645 213.977C180.785 214.362 180.845 214.771 180.82 215.18C180.782 215.982 180.439 216.74 179.86 217.297C179.282 217.855 178.513 218.171 177.71 218.18Z" fill="#FF0831"/>
<path d="M142.42 218.18C142.01 218.181 141.605 218.098 141.229 217.936C140.853 217.774 140.513 217.537 140.232 217.239C139.951 216.941 139.734 216.588 139.595 216.203C139.455 215.818 139.395 215.409 139.42 215C139.458 214.198 139.801 213.44 140.379 212.883C140.958 212.325 141.727 212.009 142.53 212C142.94 211.999 143.345 212.082 143.721 212.244C144.097 212.406 144.436 212.643 144.718 212.941C144.999 213.239 145.216 213.592 145.355 213.977C145.495 214.362 145.555 214.771 145.53 215.18C145.494 215.983 145.152 216.742 144.573 217.3C143.994 217.858 143.224 218.173 142.42 218.18Z" fill="#FF0831"/>
<g opacity="0.1">
<path d="M318.86 218.18C318.45 218.181 318.045 218.098 317.669 217.936C317.292 217.774 316.953 217.537 316.672 217.239C316.391 216.941 316.174 216.588 316.034 216.203C315.895 215.818 315.835 215.409 315.86 215C315.898 214.198 316.241 213.44 316.819 212.883C317.398 212.325 318.167 212.009 318.97 212C319.379 211.999 319.785 212.082 320.161 212.244C320.537 212.406 320.876 212.643 321.158 212.941C321.439 213.239 321.656 213.592 321.795 213.977C321.935 214.362 321.994 214.771 321.97 215.18C321.932 215.982 321.588 216.74 321.01 217.297C320.432 217.855 319.663 218.171 318.86 218.18Z" fill="#FAFAFA"/>
<path d="M283.57 218.18C283.16 218.181 282.755 218.098 282.379 217.936C282.002 217.774 281.663 217.537 281.382 217.239C281.101 216.941 280.884 216.588 280.744 216.203C280.605 215.818 280.545 215.409 280.57 215C280.608 214.198 280.951 213.44 281.529 212.883C282.107 212.325 282.877 212.009 283.68 212C284.089 211.999 284.495 212.082 284.871 212.244C285.247 212.406 285.586 212.643 285.867 212.941C286.148 213.239 286.366 213.592 286.505 213.977C286.645 214.362 286.704 214.771 286.68 215.18C286.644 215.983 286.302 216.742 285.723 217.3C285.144 217.858 284.374 218.173 283.57 218.18Z" fill="#FAFAFA"/>
<path d="M248.28 218.18C247.87 218.181 247.465 218.098 247.089 217.936C246.713 217.774 246.374 217.537 246.092 217.239C245.811 216.941 245.594 216.588 245.455 216.203C245.315 215.818 245.255 215.409 245.28 215C245.321 214.199 245.665 213.442 246.242 212.885C246.82 212.328 247.588 212.012 248.39 212C248.8 211.999 249.205 212.082 249.581 212.244C249.957 212.406 250.297 212.643 250.578 212.941C250.859 213.239 251.076 213.592 251.216 213.977C251.355 214.362 251.415 214.771 251.39 215.18C251.354 215.983 251.012 216.742 250.433 217.3C249.855 217.858 249.084 218.173 248.28 218.18Z" fill="#FAFAFA"/>
<path d="M213 218.18C212.59 218.181 212.185 218.098 211.809 217.936C211.433 217.774 211.094 217.537 210.812 217.239C210.531 216.941 210.314 216.588 210.175 216.203C210.035 215.818 209.975 215.409 210 215C210.043 214.198 210.389 213.442 210.968 212.885C211.548 212.328 212.317 212.012 213.12 212C213.53 211.999 213.935 212.082 214.311 212.244C214.687 212.406 215.027 212.643 215.308 212.941C215.589 213.239 215.806 213.592 215.945 213.977C216.085 214.362 216.145 214.771 216.12 215.18C216.084 215.985 215.74 216.745 215.16 217.303C214.579 217.862 213.806 218.176 213 218.18Z" fill="#FAFAFA"/>
<path d="M177.71 218.18C177.3 218.181 176.895 218.098 176.519 217.936C176.143 217.774 175.803 217.537 175.522 217.239C175.241 216.941 175.024 216.588 174.885 216.203C174.745 215.818 174.685 215.409 174.71 215C174.748 214.198 175.091 213.44 175.669 212.883C176.248 212.325 177.017 212.009 177.82 212C178.23 211.999 178.635 212.082 179.011 212.244C179.387 212.406 179.727 212.643 180.008 212.941C180.289 213.239 180.506 213.592 180.645 213.977C180.785 214.362 180.845 214.771 180.82 215.18C180.782 215.982 180.439 216.74 179.86 217.297C179.282 217.855 178.513 218.171 177.71 218.18Z" fill="#FAFAFA"/>
<path d="M142.42 218.18C142.01 218.181 141.605 218.098 141.229 217.936C140.853 217.774 140.513 217.537 140.232 217.239C139.951 216.941 139.734 216.588 139.595 216.203C139.455 215.818 139.395 215.409 139.42 215C139.458 214.198 139.801 213.44 140.379 212.883C140.958 212.325 141.727 212.009 142.53 212C142.94 211.999 143.345 212.082 143.721 212.244C144.097 212.406 144.436 212.643 144.718 212.941C144.999 213.239 145.216 213.592 145.355 213.977C145.495 214.362 145.555 214.771 145.53 215.18C145.494 215.983 145.152 216.742 144.573 217.3C143.994 217.858 143.224 218.173 142.42 218.18Z" fill="#FAFAFA"/>
</g>
<path d="M151.24 229.36H133.49C133.233 229.362 132.978 229.311 132.741 229.209C132.505 229.108 132.292 228.958 132.116 228.77C131.94 228.582 131.806 228.36 131.72 228.117C131.635 227.874 131.601 227.617 131.62 227.36C131.64 226.836 131.857 226.339 132.228 225.968C132.599 225.597 133.096 225.38 133.62 225.36H151.37C151.627 225.358 151.882 225.409 152.119 225.511C152.355 225.612 152.568 225.762 152.744 225.95C152.92 226.138 153.055 226.36 153.14 226.603C153.225 226.846 153.259 227.103 153.24 227.36C153.22 227.884 153.003 228.381 152.632 228.752C152.261 229.123 151.764 229.34 151.24 229.36Z" fill="#FF0831"/>
<path d="M186.53 229.36H168.78C168.523 229.362 168.268 229.311 168.031 229.209C167.795 229.108 167.582 228.958 167.406 228.77C167.23 228.582 167.096 228.36 167.01 228.117C166.925 227.874 166.891 227.617 166.91 227.36C166.931 226.827 167.155 226.323 167.536 225.951C167.917 225.579 168.427 225.367 168.96 225.36H186.7C186.958 225.358 187.213 225.409 187.45 225.511C187.687 225.612 187.901 225.761 188.077 225.949C188.254 226.137 188.389 226.359 188.476 226.602C188.563 226.845 188.598 227.103 188.58 227.36C188.56 227.892 188.336 228.397 187.954 228.769C187.573 229.141 187.063 229.353 186.53 229.36Z" fill="#FF0831"/>
<path d="M221.82 229.36H204.07C203.812 229.362 203.557 229.311 203.32 229.209C203.083 229.108 202.87 228.959 202.693 228.771C202.516 228.583 202.381 228.361 202.294 228.118C202.208 227.875 202.172 227.617 202.19 227.36C202.211 226.827 202.435 226.323 202.816 225.951C203.197 225.579 203.707 225.367 204.24 225.36H222C222.257 225.358 222.512 225.409 222.749 225.511C222.985 225.612 223.198 225.762 223.374 225.95C223.55 226.138 223.685 226.36 223.77 226.603C223.855 226.846 223.889 227.103 223.87 227.36C223.852 227.893 223.629 228.399 223.247 228.772C222.865 229.144 222.354 229.355 221.82 229.36Z" fill="#FF0831"/>
<path d="M257.1 229.36H239.35C239.093 229.362 238.838 229.311 238.601 229.209C238.365 229.108 238.152 228.958 237.976 228.77C237.8 228.582 237.665 228.36 237.58 228.117C237.495 227.874 237.461 227.617 237.48 227.36C237.5 226.836 237.717 226.339 238.088 225.968C238.458 225.597 238.956 225.38 239.48 225.36H257.23C257.487 225.358 257.742 225.409 257.979 225.511C258.215 225.612 258.428 225.762 258.604 225.95C258.78 226.138 258.914 226.36 259 226.603C259.085 226.846 259.119 227.103 259.1 227.36C259.08 227.884 258.863 228.381 258.492 228.752C258.121 229.123 257.624 229.34 257.1 229.36Z" fill="#FF0831"/>
<path d="M292.39 229.36H274.64C274.383 229.362 274.128 229.311 273.891 229.209C273.655 229.108 273.442 228.958 273.266 228.77C273.09 228.582 272.955 228.36 272.87 228.117C272.785 227.874 272.751 227.617 272.77 227.36C272.79 226.827 273.014 226.323 273.396 225.951C273.777 225.579 274.287 225.367 274.82 225.36H292.57C292.827 225.358 293.082 225.409 293.319 225.511C293.555 225.612 293.768 225.762 293.944 225.95C294.12 226.138 294.254 226.36 294.34 226.603C294.425 226.846 294.459 227.103 294.44 227.36C294.419 227.893 294.195 228.397 293.814 228.769C293.433 229.141 292.923 229.353 292.39 229.36Z" fill="#FF0831"/>
<path d="M327.68 229.36H309.93C309.673 229.362 309.418 229.311 309.181 229.209C308.945 229.108 308.732 228.958 308.556 228.77C308.38 228.582 308.245 228.36 308.16 228.117C308.075 227.874 308.041 227.617 308.06 227.36C308.08 226.827 308.304 226.323 308.686 225.951C309.067 225.579 309.577 225.367 310.11 225.36H327.85C328.108 225.358 328.363 225.409 328.6 225.511C328.837 225.612 329.05 225.761 329.227 225.949C329.404 226.137 329.539 226.359 329.626 226.602C329.712 226.845 329.748 227.103 329.73 227.36C329.71 227.892 329.485 228.397 329.104 228.769C328.723 229.141 328.213 229.353 327.68 229.36Z" fill="#FF0831"/>
<g opacity="0.3">
<path d="M151.24 229.36H133.49C133.233 229.362 132.978 229.311 132.741 229.209C132.505 229.108 132.292 228.958 132.116 228.77C131.94 228.582 131.806 228.36 131.72 228.117C131.635 227.874 131.601 227.617 131.62 227.36C131.64 226.836 131.857 226.339 132.228 225.968C132.599 225.597 133.096 225.38 133.62 225.36H151.37C151.627 225.358 151.882 225.409 152.119 225.511C152.355 225.612 152.568 225.762 152.744 225.95C152.92 226.138 153.055 226.36 153.14 226.603C153.225 226.846 153.259 227.103 153.24 227.36C153.22 227.884 153.003 228.381 152.632 228.752C152.261 229.123 151.764 229.34 151.24 229.36Z" fill="black"/>
<path d="M186.53 229.36H168.78C168.523 229.362 168.268 229.311 168.031 229.209C167.795 229.108 167.582 228.958 167.406 228.77C167.23 228.582 167.096 228.36 167.01 228.117C166.925 227.874 166.891 227.617 166.91 227.36C166.931 226.827 167.155 226.323 167.536 225.951C167.917 225.579 168.427 225.367 168.96 225.36H186.7C186.958 225.358 187.213 225.409 187.45 225.511C187.687 225.612 187.901 225.761 188.077 225.949C188.254 226.137 188.389 226.359 188.476 226.602C188.563 226.845 188.598 227.103 188.58 227.36C188.56 227.892 188.336 228.397 187.954 228.769C187.573 229.141 187.063 229.353 186.53 229.36Z" fill="black"/>
<path d="M221.82 229.36H204.07C203.812 229.362 203.557 229.311 203.32 229.209C203.083 229.108 202.87 228.959 202.693 228.771C202.516 228.583 202.381 228.361 202.294 228.118C202.208 227.875 202.172 227.617 202.19 227.36C202.211 226.827 202.435 226.323 202.816 225.951C203.197 225.579 203.707 225.367 204.24 225.36H222C222.257 225.358 222.512 225.409 222.749 225.511C222.985 225.612 223.198 225.762 223.374 225.95C223.55 226.138 223.685 226.36 223.77 226.603C223.855 226.846 223.889 227.103 223.87 227.36C223.852 227.893 223.629 228.399 223.247 228.772C222.865 229.144 222.354 229.355 221.82 229.36Z" fill="black"/>
<path d="M257.1 229.36H239.35C239.093 229.362 238.838 229.311 238.601 229.209C238.365 229.108 238.152 228.958 237.976 228.77C237.8 228.582 237.666 228.36 237.58 228.117C237.495 227.874 237.461 227.617 237.48 227.36C237.5 226.836 237.717 226.339 238.088 225.968C238.459 225.597 238.956 225.38 239.48 225.36H257.23C257.487 225.358 257.742 225.409 257.979 225.511C258.215 225.612 258.428 225.762 258.604 225.95C258.78 226.138 258.915 226.36 259 226.603C259.085 226.846 259.12 227.103 259.1 227.36C259.08 227.884 258.863 228.381 258.492 228.752C258.122 229.123 257.624 229.34 257.1 229.36Z" fill="black"/>
<path d="M292.39 229.36H274.64C274.383 229.362 274.128 229.311 273.891 229.209C273.655 229.108 273.442 228.958 273.266 228.77C273.09 228.582 272.955 228.36 272.87 228.117C272.785 227.874 272.751 227.617 272.77 227.36C272.79 226.827 273.014 226.323 273.396 225.951C273.777 225.579 274.287 225.367 274.82 225.36H292.57C292.827 225.358 293.082 225.409 293.319 225.511C293.555 225.612 293.768 225.762 293.944 225.95C294.12 226.138 294.254 226.36 294.34 226.603C294.425 226.846 294.459 227.103 294.44 227.36C294.419 227.893 294.195 228.397 293.814 228.769C293.433 229.141 292.923 229.353 292.39 229.36Z" fill="black"/>
<path d="M327.68 229.36H309.93C309.673 229.362 309.418 229.311 309.181 229.209C308.945 229.108 308.732 228.958 308.556 228.77C308.38 228.582 308.245 228.36 308.16 228.117C308.075 227.874 308.041 227.617 308.06 227.36C308.08 226.827 308.304 226.323 308.686 225.951C309.067 225.579 309.577 225.367 310.11 225.36H327.85C328.108 225.358 328.363 225.409 328.6 225.511C328.837 225.612 329.05 225.761 329.227 225.949C329.404 226.137 329.539 226.359 329.626 226.602C329.712 226.845 329.748 227.103 329.73 227.36C329.71 227.892 329.485 228.397 329.104 228.769C328.723 229.141 328.213 229.353 327.68 229.36Z" fill="black"/>
</g>
<path d="M152.22 267.13H129.1C128.593 267.132 128.091 267.031 127.624 266.832C127.158 266.633 126.737 266.342 126.386 265.975C126.036 265.608 125.765 265.174 125.588 264.698C125.412 264.223 125.334 263.716 125.36 263.21L126.36 240.09C126.421 239.039 126.877 238.05 127.638 237.323C128.399 236.595 129.408 236.183 130.46 236.17H153.58C154.087 236.168 154.589 236.269 155.056 236.468C155.522 236.667 155.944 236.958 156.294 237.325C156.644 237.692 156.915 238.126 157.092 238.602C157.268 239.077 157.346 239.584 157.32 240.09L156.32 263.21C156.257 264.26 155.8 265.248 155.039 265.975C154.279 266.701 153.272 267.114 152.22 267.13Z" fill="#FF0831"/>
<path d="M187.51 267.13H164.39C163.882 267.133 163.38 267.033 162.912 266.835C162.445 266.637 162.023 266.345 161.673 265.978C161.323 265.611 161.051 265.176 160.875 264.7C160.699 264.224 160.623 263.717 160.65 263.21L161.65 240.09C161.711 239.039 162.167 238.05 162.928 237.323C163.689 236.595 164.697 236.183 165.75 236.17H188.9C189.407 236.168 189.91 236.269 190.377 236.468C190.844 236.666 191.266 236.958 191.617 237.325C191.968 237.691 192.24 238.126 192.418 238.601C192.595 239.076 192.674 239.583 192.65 240.09L191.6 263.21C191.542 264.26 191.087 265.249 190.328 265.976C189.569 266.704 188.561 267.116 187.51 267.13Z" fill="#FF0831"/>
<path d="M222.79 267.13H199.68C199.172 267.132 198.67 267.031 198.203 266.832C197.736 266.634 197.314 266.342 196.963 265.975C196.612 265.609 196.34 265.174 196.162 264.699C195.984 264.223 195.905 263.717 195.93 263.21L196.93 240.09C196.991 239.039 197.447 238.05 198.208 237.323C198.969 236.595 199.977 236.183 201.03 236.17H224.14C224.647 236.167 225.15 236.267 225.617 236.465C226.085 236.663 226.506 236.955 226.857 237.322C227.207 237.689 227.479 238.124 227.655 238.6C227.83 239.076 227.907 239.583 227.88 240.09L226.88 263.21C226.819 264.259 226.364 265.247 225.605 265.974C224.847 266.701 223.841 267.114 222.79 267.13Z" fill="#FF0831"/>
<path d="M258.08 267.13H235C234.492 267.133 233.989 267.033 233.521 266.835C233.053 266.637 232.631 266.346 232.28 265.978C231.929 265.611 231.656 265.177 231.479 264.701C231.302 264.224 231.224 263.717 231.25 263.21L232.25 240.09C232.308 239.04 232.763 238.051 233.522 237.324C234.281 236.596 235.288 236.184 236.34 236.17H259.46C259.967 236.168 260.469 236.269 260.936 236.468C261.402 236.667 261.824 236.958 262.174 237.325C262.524 237.692 262.795 238.126 262.972 238.602C263.148 239.077 263.226 239.584 263.2 240.09L262.2 263.21C262.139 264.264 261.679 265.256 260.914 265.984C260.149 266.712 259.136 267.122 258.08 267.13Z" fill="#FF0831"/>
<path d="M293.37 267.13H270.25C269.743 267.132 269.241 267.031 268.774 266.832C268.308 266.633 267.886 266.342 267.536 265.975C267.186 265.608 266.915 265.174 266.738 264.698C266.562 264.223 266.484 263.716 266.51 263.21L267.51 240.09C267.571 239.039 268.027 238.05 268.788 237.323C269.549 236.595 270.557 236.183 271.61 236.17H294.72C295.228 236.167 295.731 236.267 296.199 236.465C296.667 236.663 297.089 236.954 297.44 237.321C297.791 237.689 298.064 238.123 298.241 238.599C298.418 239.076 298.496 239.583 298.47 240.09L297.47 263.21C297.407 264.26 296.95 265.248 296.189 265.975C295.429 266.701 294.422 267.114 293.37 267.13Z" fill="#FF0831"/>
<path d="M328.65 267.13H305.54C305.033 267.133 304.53 267.033 304.063 266.835C303.595 266.637 303.174 266.345 302.823 265.978C302.473 265.611 302.201 265.176 302.025 264.7C301.849 264.224 301.773 263.717 301.8 263.21L302.8 240.09C302.861 239.039 303.318 238.05 304.078 237.323C304.839 236.595 305.848 236.183 306.9 236.17H330.01C330.518 236.168 331.02 236.269 331.487 236.468C331.954 236.666 332.376 236.958 332.727 237.325C333.078 237.691 333.35 238.126 333.528 238.601C333.706 239.076 333.785 239.583 333.76 240.09L332.71 263.21C332.652 264.255 332.202 265.239 331.449 265.966C330.696 266.693 329.696 267.109 328.65 267.13Z" fill="#FF0831"/>
<g opacity="0.8">
<path d="M152.22 267.13H129.1C128.593 267.132 128.091 267.031 127.624 266.832C127.158 266.633 126.737 266.342 126.386 265.975C126.036 265.608 125.765 265.174 125.588 264.698C125.412 264.223 125.334 263.716 125.36 263.21L126.36 240.09C126.421 239.039 126.877 238.05 127.638 237.323C128.399 236.595 129.408 236.183 130.46 236.17H153.58C154.087 236.168 154.589 236.269 155.056 236.468C155.522 236.667 155.944 236.958 156.294 237.325C156.644 237.692 156.915 238.126 157.092 238.602C157.268 239.077 157.346 239.584 157.32 240.09L156.32 263.21C156.257 264.26 155.8 265.248 155.039 265.975C154.279 266.701 153.272 267.114 152.22 267.13Z" fill="#FAFAFA"/>
<path d="M187.51 267.13H164.39C163.883 267.133 163.38 267.033 162.913 266.835C162.445 266.637 162.024 266.345 161.673 265.978C161.323 265.611 161.051 265.176 160.876 264.7C160.7 264.224 160.623 263.717 160.65 263.21L161.65 240.09C161.711 239.039 162.168 238.05 162.928 237.323C163.689 236.595 164.698 236.183 165.75 236.17H188.9C189.408 236.168 189.91 236.269 190.377 236.468C190.844 236.666 191.266 236.958 191.617 237.325C191.968 237.691 192.24 238.126 192.418 238.601C192.596 239.076 192.675 239.583 192.65 240.09L191.6 263.21C191.542 264.26 191.087 265.249 190.328 265.976C189.569 266.704 188.562 267.116 187.51 267.13Z" fill="#FAFAFA"/>
<path d="M222.79 267.13H199.68C199.173 267.132 198.67 267.031 198.203 266.832C197.736 266.634 197.314 266.342 196.963 265.975C196.612 265.609 196.34 265.174 196.162 264.699C195.985 264.223 195.906 263.717 195.93 263.21L196.93 240.09C196.991 239.039 197.448 238.05 198.208 237.323C198.969 236.595 199.978 236.183 201.03 236.17H224.14C224.648 236.167 225.15 236.267 225.618 236.465C226.085 236.663 226.507 236.955 226.857 237.322C227.207 237.689 227.479 238.124 227.655 238.6C227.831 239.076 227.907 239.583 227.88 240.09L226.88 263.21C226.82 264.259 226.364 265.247 225.606 265.974C224.847 266.701 223.841 267.114 222.79 267.13Z" fill="#FAFAFA"/>
<path d="M258.08 267.13H235C234.492 267.133 233.989 267.033 233.521 266.835C233.053 266.637 232.631 266.346 232.28 265.978C231.929 265.611 231.656 265.177 231.479 264.701C231.302 264.224 231.224 263.717 231.25 263.21L232.25 240.09C232.308 239.04 232.763 238.051 233.522 237.324C234.281 236.596 235.288 236.184 236.34 236.17H259.46C259.967 236.168 260.469 236.269 260.936 236.468C261.402 236.667 261.824 236.958 262.174 237.325C262.524 237.692 262.795 238.126 262.972 238.602C263.148 239.077 263.226 239.584 263.2 240.09L262.2 263.21C262.139 264.264 261.679 265.256 260.914 265.984C260.149 266.712 259.136 267.122 258.08 267.13Z" fill="#FAFAFA"/>
<path d="M293.37 267.13H270.25C269.743 267.132 269.241 267.031 268.774 266.832C268.308 266.633 267.886 266.342 267.536 265.975C267.186 265.608 266.915 265.174 266.738 264.698C266.562 264.223 266.484 263.716 266.51 263.21L267.51 240.09C267.571 239.039 268.027 238.05 268.788 237.323C269.549 236.595 270.557 236.183 271.61 236.17H294.72C295.228 236.167 295.731 236.267 296.199 236.465C296.667 236.663 297.089 236.954 297.44 237.321C297.791 237.689 298.064 238.123 298.241 238.599C298.418 239.076 298.496 239.583 298.47 240.09L297.47 263.21C297.407 264.26 296.95 265.248 296.189 265.975C295.429 266.701 294.422 267.114 293.37 267.13Z" fill="#FAFAFA"/>
<path d="M328.65 267.13H305.54C305.033 267.133 304.53 267.033 304.063 266.835C303.595 266.637 303.174 266.345 302.823 265.978C302.473 265.611 302.201 265.176 302.025 264.7C301.849 264.224 301.773 263.717 301.8 263.21L302.8 240.09C302.861 239.039 303.318 238.05 304.078 237.323C304.839 236.595 305.848 236.183 306.9 236.17H330.01C330.518 236.168 331.02 236.269 331.487 236.468C331.954 236.666 332.376 236.958 332.727 237.325C333.078 237.691 333.35 238.126 333.528 238.601C333.706 239.076 333.785 239.583 333.76 240.09L332.71 263.21C332.652 264.255 332.202 265.239 331.449 265.966C330.696 266.693 329.696 267.109 328.65 267.13Z" fill="#FAFAFA"/>
</g>
<path d="M150.6 303H127.48C126.973 303.002 126.471 302.901 126.004 302.702C125.538 302.503 125.116 302.212 124.766 301.845C124.416 301.478 124.145 301.044 123.968 300.568C123.792 300.093 123.714 299.586 123.74 299.08L124.74 275.96C124.803 274.91 125.26 273.922 126.021 273.195C126.781 272.468 127.788 272.056 128.84 272.04H152C152.507 272.038 153.009 272.139 153.476 272.338C153.942 272.537 154.364 272.828 154.714 273.195C155.064 273.562 155.335 273.996 155.512 274.472C155.688 274.947 155.766 275.454 155.74 275.96L154.74 299.08C154.676 300.137 154.213 301.13 153.445 301.858C152.676 302.586 151.659 302.994 150.6 303Z" fill="#FF0831"/>
<path d="M185.89 303H162.77C162.263 303.002 161.761 302.901 161.294 302.702C160.828 302.503 160.406 302.212 160.056 301.845C159.706 301.478 159.435 301.044 159.258 300.568C159.082 300.093 159.004 299.586 159.03 299.08L160.03 275.96C160.091 274.909 160.547 273.92 161.308 273.193C162.069 272.465 163.077 272.053 164.13 272.04H187.24C187.752 272.036 188.259 272.138 188.73 272.338C189.201 272.539 189.626 272.833 189.979 273.205C190.331 273.576 190.604 274.016 190.779 274.496C190.955 274.977 191.03 275.489 191 276L190 299.08C189.942 300.133 189.484 301.125 188.721 301.853C187.957 302.581 186.945 302.991 185.89 303Z" fill="#FF0831"/>
<path d="M221.17 303H198.06C197.553 303.003 197.05 302.903 196.583 302.705C196.115 302.507 195.694 302.215 195.343 301.848C194.993 301.481 194.721 301.046 194.545 300.57C194.369 300.094 194.293 299.587 194.32 299.08L195.32 275.96C195.381 274.909 195.837 273.92 196.598 273.193C197.359 272.465 198.368 272.053 199.42 272.04H222.53C223.038 272.037 223.54 272.137 224.008 272.335C224.475 272.533 224.897 272.825 225.247 273.192C225.597 273.559 225.869 273.994 226.045 274.47C226.221 274.946 226.297 275.453 226.27 275.96L225.27 299.08C225.209 300.131 224.753 301.12 223.992 301.847C223.231 302.575 222.223 302.987 221.17 303Z" fill="#FF0831"/>
<path d="M256.46 303H233.35C232.843 303.002 232.34 302.901 231.873 302.702C231.406 302.504 230.984 302.212 230.633 301.845C230.282 301.479 230.01 301.044 229.832 300.569C229.655 300.094 229.576 299.587 229.6 299.08L230.6 275.96C230.658 274.91 231.113 273.921 231.872 273.194C232.631 272.466 233.638 272.054 234.69 272.04H257.81C258.325 272.031 258.836 272.128 259.311 272.326C259.787 272.524 260.216 272.818 260.572 273.19C260.928 273.562 261.203 274.004 261.38 274.488C261.557 274.971 261.632 275.486 261.6 276L260.6 299.12C260.529 300.171 260.062 301.155 259.294 301.875C258.526 302.595 257.513 302.997 256.46 303Z" fill="#FF0831"/>
<path d="M291.75 303H268.63C268.123 303.002 267.621 302.901 267.154 302.702C266.688 302.503 266.267 302.212 265.916 301.845C265.566 301.478 265.295 301.044 265.118 300.568C264.942 300.093 264.864 299.586 264.89 299.08L265.89 275.96C265.943 274.901 266.398 273.902 267.161 273.167C267.925 272.431 268.94 272.014 270 272H293.12C293.627 271.998 294.129 272.099 294.596 272.298C295.062 272.497 295.484 272.788 295.834 273.155C296.184 273.522 296.455 273.956 296.632 274.432C296.808 274.907 296.886 275.414 296.86 275.92L295.86 299.04C295.807 300.099 295.352 301.098 294.589 301.833C293.825 302.569 292.81 302.986 291.75 303Z" fill="#FF0831"/>
<path d="M327 303H303.92C303.412 303.003 302.91 302.903 302.442 302.705C301.975 302.507 301.553 302.215 301.203 301.848C300.853 301.481 300.581 301.046 300.405 300.57C300.229 300.094 300.153 299.587 300.18 299.08L301.18 275.96C301.241 274.909 301.697 273.92 302.458 273.193C303.219 272.465 304.227 272.053 305.28 272.04H328.39C328.897 272.038 329.4 272.139 329.867 272.338C330.334 272.536 330.756 272.828 331.107 273.195C331.458 273.561 331.73 273.996 331.908 274.471C332.085 274.946 332.164 275.453 332.14 275.96L331.09 299.08C331.032 300.13 330.577 301.119 329.818 301.846C329.059 302.574 328.051 302.986 327 303Z" fill="#FF0831"/>
<g opacity="0.8">
<path d="M150.6 303H127.48C126.973 303.002 126.471 302.901 126.004 302.702C125.538 302.503 125.116 302.212 124.766 301.845C124.416 301.478 124.145 301.044 123.968 300.568C123.792 300.093 123.714 299.586 123.74 299.08L124.74 275.96C124.803 274.91 125.26 273.922 126.021 273.195C126.781 272.468 127.788 272.056 128.84 272.04H152C152.507 272.038 153.009 272.139 153.476 272.338C153.942 272.537 154.364 272.828 154.714 273.195C155.064 273.562 155.335 273.996 155.512 274.472C155.688 274.947 155.766 275.454 155.74 275.96L154.74 299.08C154.676 300.137 154.213 301.13 153.445 301.858C152.676 302.586 151.659 302.994 150.6 303Z" fill="#FAFAFA"/>
<path d="M185.89 303H162.77C162.263 303.002 161.761 302.901 161.294 302.702C160.828 302.503 160.406 302.212 160.056 301.845C159.706 301.478 159.435 301.044 159.258 300.568C159.082 300.093 159.004 299.586 159.03 299.08L160.03 275.96C160.091 274.909 160.547 273.92 161.308 273.193C162.069 272.465 163.077 272.053 164.13 272.04H187.24C187.752 272.036 188.259 272.138 188.73 272.338C189.201 272.539 189.626 272.833 189.979 273.205C190.331 273.576 190.604 274.016 190.779 274.496C190.955 274.977 191.03 275.489 191 276L190 299.08C189.942 300.133 189.484 301.125 188.721 301.853C187.957 302.581 186.945 302.991 185.89 303Z" fill="#FAFAFA"/>
<path d="M221.17 303H198.06C197.552 303.003 197.05 302.903 196.582 302.705C196.115 302.507 195.693 302.215 195.343 301.848C194.993 301.481 194.721 301.046 194.545 300.57C194.369 300.094 194.293 299.587 194.32 299.08L195.32 275.96C195.38 274.909 195.837 273.92 196.598 273.193C197.359 272.465 198.367 272.053 199.42 272.04H222.53C223.037 272.037 223.54 272.137 224.007 272.335C224.475 272.533 224.896 272.825 225.247 273.192C225.597 273.559 225.869 273.994 226.044 274.47C226.22 274.946 226.297 275.453 226.27 275.96L225.27 299.08C225.209 300.131 224.752 301.12 223.992 301.847C223.231 302.575 222.222 302.987 221.17 303Z" fill="#FAFAFA"/>
<path d="M256.46 303H233.35C232.843 303.002 232.34 302.901 231.873 302.702C231.406 302.504 230.984 302.212 230.633 301.845C230.282 301.479 230.01 301.044 229.832 300.569C229.655 300.094 229.576 299.587 229.6 299.08L230.6 275.96C230.658 274.91 231.113 273.921 231.872 273.194C232.631 272.466 233.638 272.054 234.69 272.04H257.81C258.325 272.031 258.836 272.128 259.311 272.326C259.787 272.524 260.216 272.818 260.572 273.19C260.928 273.562 261.203 274.004 261.38 274.488C261.557 274.971 261.632 275.486 261.6 276L260.6 299.12C260.529 300.171 260.062 301.155 259.294 301.875C258.526 302.595 257.513 302.997 256.46 303Z" fill="#FAFAFA"/>
<path d="M291.75 303H268.63C268.123 303.002 267.621 302.901 267.154 302.702C266.687 302.503 266.266 302.212 265.916 301.845C265.566 301.478 265.295 301.044 265.118 300.568C264.942 300.093 264.864 299.586 264.89 299.08L265.89 275.96C265.943 274.901 266.398 273.902 267.161 273.167C267.925 272.431 268.94 272.014 270 272H293.12C293.627 271.998 294.129 272.099 294.596 272.298C295.062 272.497 295.483 272.788 295.833 273.155C296.183 273.522 296.455 273.956 296.631 274.432C296.808 274.907 296.886 275.414 296.86 275.92L295.86 299.04C295.807 300.099 295.352 301.098 294.588 301.833C293.825 302.569 292.81 302.986 291.75 303Z" fill="#FAFAFA"/>
<path d="M327 303H303.92C303.412 303.003 302.91 302.903 302.442 302.705C301.975 302.507 301.553 302.215 301.203 301.848C300.853 301.481 300.581 301.046 300.405 300.57C300.229 300.094 300.153 299.587 300.18 299.08L301.18 275.96C301.241 274.909 301.697 273.92 302.458 273.193C303.219 272.465 304.227 272.053 305.28 272.04H328.39C328.897 272.038 329.4 272.139 329.867 272.338C330.334 272.536 330.756 272.828 331.107 273.195C331.458 273.561 331.73 273.996 331.908 274.471C332.085 274.946 332.164 275.453 332.14 275.96L331.09 299.08C331.032 300.13 330.577 301.119 329.818 301.846C329.059 302.574 328.051 302.986 327 303Z" fill="#FAFAFA"/>
</g>
<path d="M149 338.86H125.86C125.352 338.863 124.85 338.763 124.382 338.565C123.915 338.367 123.493 338.075 123.143 337.708C122.793 337.341 122.521 336.906 122.345 336.43C122.169 335.954 122.093 335.447 122.12 334.94L123.12 311.83C123.181 310.779 123.637 309.79 124.398 309.063C125.159 308.335 126.167 307.923 127.22 307.91H150.34C150.847 307.907 151.35 308.007 151.817 308.205C152.285 308.403 152.706 308.695 153.057 309.062C153.407 309.429 153.679 309.864 153.855 310.34C154.031 310.816 154.107 311.323 154.08 311.83L153.08 334.94C153.022 335.988 152.569 336.976 151.811 337.703C151.054 338.43 150.05 338.844 149 338.86Z" fill="#FF0831"/>
<path d="M184.27 338.86H161.15C160.642 338.863 160.14 338.763 159.672 338.565C159.205 338.367 158.783 338.075 158.433 337.708C158.083 337.341 157.811 336.906 157.635 336.43C157.459 335.954 157.383 335.447 157.41 334.94L158.41 311.83C158.468 310.778 158.924 309.788 159.686 309.06C160.447 308.332 161.457 307.921 162.51 307.91H185.62C186.128 307.905 186.632 308.005 187.101 308.202C187.569 308.4 187.992 308.691 188.343 309.058C188.695 309.426 188.967 309.861 189.144 310.338C189.32 310.815 189.397 311.322 189.37 311.83L188.37 334.94C188.314 335.993 187.859 336.984 187.097 337.713C186.335 338.441 185.324 338.851 184.27 338.86Z" fill="#FF0831"/>
<path d="M219.55 338.86H196.44C195.932 338.863 195.43 338.763 194.962 338.565C194.495 338.367 194.073 338.075 193.723 337.708C193.373 337.341 193.101 336.906 192.925 336.43C192.749 335.954 192.673 335.447 192.7 334.94L193.7 311.83C193.758 310.778 194.214 309.788 194.976 309.06C195.737 308.332 196.747 307.921 197.8 307.91H221C221.508 307.907 222.011 308.007 222.479 308.205C222.947 308.403 223.369 308.694 223.72 309.061C224.071 309.429 224.344 309.863 224.521 310.339C224.698 310.816 224.776 311.323 224.75 311.83L223.7 334.94C223.641 336 223.178 336.998 222.406 337.727C221.634 338.456 220.612 338.862 219.55 338.86Z" fill="#FF0831"/>
<path d="M254.84 338.86H231.73C231.222 338.863 230.719 338.763 230.251 338.565C229.783 338.367 229.361 338.076 229.01 337.708C228.659 337.341 228.386 336.907 228.209 336.431C228.032 335.954 227.954 335.447 227.98 334.94L228.98 311.83C229.036 310.779 229.49 309.789 230.249 309.061C231.009 308.333 232.018 307.921 233.07 307.91H256.19C256.697 307.907 257.2 308.007 257.668 308.205C258.135 308.403 258.556 308.695 258.907 309.062C259.257 309.429 259.529 309.864 259.705 310.34C259.881 310.816 259.957 311.323 259.93 311.83L258.93 334.94C258.872 335.99 258.417 336.979 257.658 337.706C256.899 338.434 255.891 338.846 254.84 338.86Z" fill="#FF0831"/>
<path d="M290.13 338.86H267C266.493 338.863 265.99 338.763 265.522 338.565C265.055 338.367 264.633 338.075 264.283 337.708C263.933 337.341 263.661 336.906 263.485 336.43C263.309 335.954 263.233 335.447 263.26 334.94L264.26 311.83C264.321 310.779 264.777 309.79 265.538 309.063C266.299 308.335 267.307 307.923 268.36 307.91H291.48C291.988 307.907 292.49 308.007 292.958 308.205C293.425 308.403 293.847 308.695 294.197 309.062C294.547 309.429 294.819 309.864 294.995 310.34C295.171 310.816 295.247 311.323 295.22 311.83L294.22 334.94C294.16 335.989 293.704 336.977 292.945 337.704C292.187 338.431 291.181 338.844 290.13 338.86Z" fill="#FF0831"/>
<path d="M325.42 338.86H302.3C301.793 338.863 301.29 338.763 300.823 338.565C300.355 338.367 299.934 338.075 299.583 337.708C299.233 337.341 298.961 336.906 298.785 336.43C298.609 335.954 298.533 335.447 298.56 334.94L299.56 311.83C299.618 310.778 300.074 309.788 300.836 309.06C301.597 308.332 302.607 307.921 303.66 307.91H326.77C327.278 307.907 327.781 308.007 328.249 308.205C328.717 308.403 329.139 308.694 329.49 309.061C329.841 309.429 330.114 309.863 330.291 310.339C330.468 310.816 330.546 311.323 330.52 311.83L329.47 334.94C329.415 335.984 328.966 336.968 328.215 337.696C327.464 338.423 326.465 338.839 325.42 338.86Z" fill="#FF0831"/>
<g opacity="0.8">
<path d="M149 338.86H125.86C125.352 338.863 124.85 338.763 124.382 338.565C123.915 338.367 123.493 338.075 123.143 337.708C122.793 337.341 122.521 336.906 122.345 336.43C122.169 335.954 122.093 335.447 122.12 334.94L123.12 311.83C123.181 310.779 123.637 309.79 124.398 309.063C125.159 308.335 126.167 307.923 127.22 307.91H150.34C150.847 307.907 151.35 308.007 151.817 308.205C152.285 308.403 152.706 308.695 153.057 309.062C153.407 309.429 153.679 309.864 153.855 310.34C154.031 310.816 154.107 311.323 154.08 311.83L153.08 334.94C153.022 335.988 152.569 336.976 151.811 337.703C151.054 338.43 150.05 338.844 149 338.86Z" fill="#FAFAFA"/>
<path d="M184.27 338.86H161.15C160.642 338.863 160.14 338.763 159.672 338.565C159.205 338.367 158.783 338.075 158.433 337.708C158.083 337.341 157.811 336.906 157.635 336.43C157.459 335.954 157.383 335.447 157.41 334.94L158.41 311.83C158.468 310.778 158.924 309.788 159.686 309.06C160.447 308.332 161.457 307.921 162.51 307.91H185.62C186.128 307.905 186.632 308.005 187.101 308.202C187.569 308.4 187.992 308.691 188.343 309.058C188.695 309.426 188.967 309.861 189.144 310.338C189.32 310.815 189.397 311.322 189.37 311.83L188.37 334.94C188.314 335.993 187.859 336.984 187.097 337.713C186.335 338.441 185.324 338.851 184.27 338.86Z" fill="#FAFAFA"/>
<path d="M219.55 338.86H196.44C195.932 338.863 195.43 338.763 194.962 338.565C194.495 338.367 194.073 338.075 193.723 337.708C193.373 337.341 193.101 336.906 192.925 336.43C192.749 335.954 192.673 335.447 192.7 334.94L193.7 311.83C193.758 310.778 194.214 309.788 194.976 309.06C195.737 308.332 196.747 307.921 197.8 307.91H221C221.508 307.907 222.011 308.007 222.479 308.205C222.947 308.403 223.369 308.694 223.72 309.061C224.071 309.429 224.344 309.863 224.521 310.339C224.698 310.816 224.776 311.323 224.75 311.83L223.7 334.94C223.641 336 223.178 336.998 222.406 337.727C221.634 338.456 220.612 338.862 219.55 338.86Z" fill="#FAFAFA"/>
<path d="M254.84 338.86H231.73C231.222 338.863 230.719 338.763 230.251 338.565C229.783 338.367 229.361 338.076 229.01 337.708C228.659 337.341 228.386 336.907 228.209 336.431C228.032 335.954 227.954 335.447 227.98 334.94L228.98 311.83C229.036 310.779 229.49 309.789 230.249 309.061C231.009 308.333 232.018 307.921 233.07 307.91H256.19C256.697 307.907 257.2 308.007 257.668 308.205C258.135 308.403 258.556 308.695 258.907 309.062C259.257 309.429 259.529 309.864 259.705 310.34C259.881 310.816 259.957 311.323 259.93 311.83L258.93 334.94C258.872 335.99 258.417 336.979 257.658 337.706C256.899 338.434 255.891 338.846 254.84 338.86Z" fill="#FAFAFA"/>
<path d="M290.13 338.86H267C266.493 338.863 265.99 338.763 265.522 338.565C265.055 338.367 264.633 338.075 264.283 337.708C263.933 337.341 263.661 336.906 263.485 336.43C263.309 335.954 263.233 335.447 263.26 334.94L264.26 311.83C264.321 310.779 264.777 309.79 265.538 309.063C266.299 308.335 267.307 307.923 268.36 307.91H291.48C291.988 307.907 292.49 308.007 292.958 308.205C293.425 308.403 293.847 308.695 294.197 309.062C294.547 309.429 294.819 309.864 294.995 310.34C295.171 310.816 295.247 311.323 295.22 311.83L294.22 334.94C294.16 335.989 293.704 336.977 292.945 337.704C292.187 338.431 291.181 338.844 290.13 338.86Z" fill="#FAFAFA"/>
<path d="M325.42 338.86H302.3C301.792 338.863 301.29 338.763 300.822 338.565C300.355 338.367 299.933 338.075 299.583 337.708C299.233 337.341 298.961 336.906 298.785 336.43C298.609 335.954 298.533 335.447 298.56 334.94L299.56 311.83C299.618 310.778 300.074 309.788 300.836 309.06C301.597 308.332 302.607 307.921 303.66 307.91H326.77C327.278 307.907 327.781 308.007 328.249 308.205C328.717 308.403 329.139 308.694 329.49 309.061C329.841 309.429 330.114 309.863 330.291 310.339C330.468 310.816 330.546 311.323 330.52 311.83L329.47 334.94C329.414 335.984 328.966 336.968 328.215 337.696C327.464 338.423 326.465 338.839 325.42 338.86Z" fill="#FAFAFA"/>
</g>
<path d="M142.45 217.44C133.93 217.44 127.25 207.53 127.25 194.88C127.25 182.23 133.93 172.33 142.45 172.33C150.97 172.33 157.66 182.24 157.66 194.88C157.621 195.473 157.358 196.029 156.925 196.435C156.491 196.841 155.919 197.067 155.325 197.067C154.731 197.067 154.159 196.841 153.725 196.435C153.292 196.029 153.029 195.473 152.99 194.88C152.99 185.19 148.17 176.99 142.45 176.99C136.73 176.99 131.91 185.19 131.91 194.88C131.91 204.57 136.74 212.77 142.45 212.77C142.769 212.749 143.09 212.794 143.391 212.902C143.693 213.01 143.969 213.178 144.203 213.397C144.436 213.616 144.623 213.881 144.75 214.174C144.877 214.468 144.943 214.785 144.943 215.105C144.943 215.425 144.877 215.742 144.75 216.036C144.623 216.329 144.436 216.594 144.203 216.813C143.969 217.032 143.693 217.2 143.391 217.308C143.09 217.416 142.769 217.461 142.45 217.44Z" fill="#FF0831"/>
<path d="M177.74 217.44C169.22 217.44 162.54 207.53 162.54 194.88C162.54 182.23 169.22 172.33 177.74 172.33C186.26 172.33 193 182.24 193 194.88C192.961 195.473 192.698 196.029 192.265 196.435C191.831 196.841 191.259 197.067 190.665 197.067C190.071 197.067 189.499 196.841 189.065 196.435C188.632 196.029 188.369 195.473 188.33 194.88C188.33 185.19 183.51 176.99 177.79 176.99C172.07 176.99 167.25 185.19 167.25 194.88C167.25 204.57 172.08 212.77 177.79 212.77C178.383 212.809 178.939 213.072 179.345 213.505C179.751 213.939 179.977 214.511 179.977 215.105C179.977 215.699 179.751 216.271 179.345 216.705C178.939 217.138 178.383 217.401 177.79 217.44H177.74Z" fill="#FF0831"/>
<path d="M213 217.44C204.47 217.44 197.79 207.53 197.79 194.88C197.79 182.23 204.47 172.33 213 172.33C221.53 172.33 228.2 182.24 228.2 194.88C228.2 195.498 227.955 196.091 227.518 196.528C227.081 196.965 226.488 197.21 225.87 197.21C225.252 197.21 224.659 196.965 224.222 196.528C223.786 196.091 223.54 195.498 223.54 194.88C223.54 185.19 218.71 176.99 213 176.99C207.29 176.99 202.46 185.19 202.46 194.88C202.46 204.57 207.29 212.77 213 212.77C213.593 212.809 214.149 213.072 214.555 213.505C214.961 213.939 215.187 214.511 215.187 215.105C215.187 215.699 214.961 216.271 214.555 216.705C214.149 217.138 213.593 217.401 213 217.44Z" fill="#FF0831"/>
<path d="M248.32 217.44C239.79 217.44 233.11 207.53 233.11 194.88C233.11 182.23 239.79 172.33 248.32 172.33C256.85 172.33 263.52 182.24 263.52 194.88C263.52 195.498 263.274 196.091 262.837 196.528C262.4 196.965 261.808 197.21 261.19 197.21C260.572 197.21 259.979 196.965 259.542 196.528C259.105 196.091 258.86 195.498 258.86 194.88C258.86 185.19 254.03 176.99 248.32 176.99C242.61 176.99 237.78 185.19 237.78 194.88C237.78 204.57 242.6 212.77 248.32 212.77C248.913 212.809 249.469 213.072 249.875 213.505C250.281 213.939 250.507 214.511 250.507 215.105C250.507 215.699 250.281 216.271 249.875 216.705C249.469 217.138 248.913 217.401 248.32 217.44Z" fill="#FF0831"/>
<path d="M283.6 217.44C275.08 217.44 268.4 207.53 268.4 194.88C268.4 182.23 275.08 172.33 283.6 172.33C292.12 172.33 298.81 182.24 298.81 194.88C298.771 195.473 298.508 196.029 298.075 196.435C297.641 196.841 297.069 197.067 296.475 197.067C295.881 197.067 295.309 196.841 294.875 196.435C294.442 196.029 294.179 195.473 294.14 194.88C294.14 185.19 289.32 176.99 283.6 176.99C277.88 176.99 273.06 185.19 273.06 194.88C273.06 204.57 277.89 212.77 283.6 212.77C283.919 212.749 284.24 212.794 284.541 212.902C284.843 213.01 285.119 213.178 285.352 213.397C285.586 213.616 285.772 213.881 285.9 214.174C286.027 214.468 286.093 214.785 286.093 215.105C286.093 215.425 286.027 215.742 285.9 216.036C285.772 216.329 285.586 216.594 285.352 216.813C285.119 217.032 284.843 217.2 284.541 217.308C284.24 217.416 283.919 217.461 283.6 217.44Z" fill="#FF0831"/>
<path d="M318.89 217.44C310.37 217.44 303.69 207.53 303.69 194.88C303.69 182.23 310.37 172.33 318.89 172.33C327.41 172.33 334.1 182.24 334.1 194.88C334.061 195.473 333.798 196.029 333.365 196.435C332.931 196.841 332.359 197.067 331.765 197.067C331.171 197.067 330.599 196.841 330.165 196.435C329.732 196.029 329.469 195.473 329.43 194.88C329.43 185.19 324.6 176.99 318.89 176.99C313.18 176.99 308.35 185.19 308.35 194.88C308.35 204.57 313.18 212.77 318.89 212.77C319.483 212.809 320.039 213.072 320.445 213.505C320.851 213.939 321.077 214.511 321.077 215.105C321.077 215.699 320.851 216.271 320.445 216.705C320.039 217.138 319.483 217.401 318.89 217.44Z" fill="#FF0831"/>
<g opacity="0.3">
<path d="M142.45 217.44C133.93 217.44 127.25 207.53 127.25 194.88C127.25 182.23 133.93 172.33 142.45 172.33C150.97 172.33 157.66 182.24 157.66 194.88C157.621 195.473 157.358 196.029 156.925 196.435C156.491 196.841 155.919 197.067 155.325 197.067C154.731 197.067 154.159 196.841 153.725 196.435C153.292 196.029 153.029 195.473 152.99 194.88C152.99 185.19 148.17 176.99 142.45 176.99C136.73 176.99 131.91 185.19 131.91 194.88C131.91 204.57 136.74 212.77 142.45 212.77C142.769 212.749 143.09 212.794 143.391 212.902C143.693 213.01 143.969 213.178 144.203 213.397C144.436 213.616 144.623 213.881 144.75 214.174C144.877 214.468 144.943 214.785 144.943 215.105C144.943 215.425 144.877 215.742 144.75 216.036C144.623 216.329 144.436 216.594 144.203 216.813C143.969 217.032 143.693 217.2 143.391 217.308C143.09 217.416 142.769 217.461 142.45 217.44Z" fill="black"/>
<path d="M177.74 217.44C169.22 217.44 162.54 207.53 162.54 194.88C162.54 182.23 169.22 172.33 177.74 172.33C186.26 172.33 193 182.24 193 194.88C192.961 195.473 192.698 196.029 192.265 196.435C191.831 196.841 191.259 197.067 190.665 197.067C190.071 197.067 189.499 196.841 189.065 196.435C188.632 196.029 188.369 195.473 188.33 194.88C188.33 185.19 183.51 176.99 177.79 176.99C172.07 176.99 167.25 185.19 167.25 194.88C167.25 204.57 172.08 212.77 177.79 212.77C178.383 212.809 178.939 213.072 179.345 213.505C179.751 213.939 179.977 214.511 179.977 215.105C179.977 215.699 179.751 216.271 179.345 216.705C178.939 217.138 178.383 217.401 177.79 217.44H177.74Z" fill="black"/>
<path d="M213 217.44C204.47 217.44 197.79 207.53 197.79 194.88C197.79 182.23 204.47 172.33 213 172.33C221.53 172.33 228.2 182.24 228.2 194.88C228.2 195.498 227.955 196.091 227.518 196.528C227.081 196.965 226.488 197.21 225.87 197.21C225.252 197.21 224.659 196.965 224.222 196.528C223.786 196.091 223.54 195.498 223.54 194.88C223.54 185.19 218.71 176.99 213 176.99C207.29 176.99 202.46 185.19 202.46 194.88C202.46 204.57 207.29 212.77 213 212.77C213.593 212.809 214.149 213.072 214.555 213.505C214.961 213.939 215.187 214.511 215.187 215.105C215.187 215.699 214.961 216.271 214.555 216.705C214.149 217.138 213.593 217.401 213 217.44Z" fill="black"/>
<path d="M248.32 217.44C239.79 217.44 233.11 207.53 233.11 194.88C233.11 182.23 239.79 172.33 248.32 172.33C256.85 172.33 263.52 182.24 263.52 194.88C263.52 195.498 263.274 196.091 262.837 196.528C262.4 196.965 261.808 197.21 261.19 197.21C260.572 197.21 259.979 196.965 259.542 196.528C259.105 196.091 258.86 195.498 258.86 194.88C258.86 185.19 254.03 176.99 248.32 176.99C242.61 176.99 237.78 185.19 237.78 194.88C237.78 204.57 242.6 212.77 248.32 212.77C248.913 212.809 249.469 213.072 249.875 213.505C250.281 213.939 250.507 214.511 250.507 215.105C250.507 215.699 250.281 216.271 249.875 216.705C249.469 217.138 248.913 217.401 248.32 217.44Z" fill="black"/>
<path d="M283.6 217.44C275.08 217.44 268.4 207.53 268.4 194.88C268.4 182.23 275.08 172.33 283.6 172.33C292.12 172.33 298.81 182.24 298.81 194.88C298.771 195.473 298.508 196.029 298.075 196.435C297.641 196.841 297.069 197.067 296.475 197.067C295.881 197.067 295.309 196.841 294.875 196.435C294.442 196.029 294.179 195.473 294.14 194.88C294.14 185.19 289.32 176.99 283.6 176.99C277.88 176.99 273.06 185.19 273.06 194.88C273.06 204.57 277.89 212.77 283.6 212.77C283.919 212.749 284.24 212.794 284.541 212.902C284.843 213.01 285.119 213.178 285.352 213.397C285.586 213.616 285.772 213.881 285.9 214.174C286.027 214.468 286.093 214.785 286.093 215.105C286.093 215.425 286.027 215.742 285.9 216.036C285.772 216.329 285.586 216.594 285.352 216.813C285.119 217.032 284.843 217.2 284.541 217.308C284.24 217.416 283.919 217.461 283.6 217.44Z" fill="black"/>
<path d="M318.89 217.44C310.37 217.44 303.69 207.53 303.69 194.88C303.69 182.23 310.37 172.33 318.89 172.33C327.41 172.33 334.1 182.24 334.1 194.88C334.061 195.473 333.798 196.029 333.365 196.435C332.931 196.841 332.359 197.067 331.765 197.067C331.171 197.067 330.599 196.841 330.165 196.435C329.732 196.029 329.469 195.473 329.43 194.88C329.43 185.19 324.6 176.99 318.89 176.99C313.18 176.99 308.35 185.19 308.35 194.88C308.35 204.57 313.18 212.77 318.89 212.77C319.483 212.809 320.039 213.072 320.445 213.505C320.851 213.939 321.077 214.511 321.077 215.105C321.077 215.699 320.851 216.271 320.445 216.705C320.039 217.138 319.483 217.401 318.89 217.44Z" fill="black"/>
</g>
<path d="M250.68 268.42C242.52 266.8 233.36 268.69 230.09 277.29C227.46 284.21 230.83 291.71 238.09 293.54C244.49 295.15 255.53 293.18 257.81 285.8C260.42 277.36 249.81 274.62 243.86 274.12C242.07 273.97 242.08 276.77 243.86 276.92C246.57 277.15 249.67 277.3 252.07 278.79C257.07 281.92 255.01 286.94 250.75 289.34C246.49 291.74 239.96 292.34 235.75 289.68C231.15 286.75 231 280.31 233.75 276.11C237.36 270.56 243.95 269.94 249.89 271.11C251.65 271.46 252.4 268.76 250.63 268.41L250.68 268.42Z" fill="#FF0831"/>
<path opacity="0.1" d="M250.68 268.42C242.52 266.8 233.36 268.69 230.09 277.29C227.46 284.21 230.83 291.71 238.09 293.54C244.49 295.15 255.53 293.18 257.81 285.8C260.42 277.36 249.81 274.62 243.86 274.12C242.07 273.97 242.08 276.77 243.86 276.92C246.57 277.15 249.67 277.3 252.07 278.79C257.07 281.92 255.01 286.94 250.75 289.34C246.49 291.74 239.96 292.34 235.75 289.68C231.15 286.75 231 280.31 233.75 276.11C237.36 270.56 243.95 269.94 249.89 271.11C251.65 271.46 252.4 268.76 250.63 268.41L250.68 268.42Z" fill="#FAFAFA"/>
<path d="M160.65 236.21C168.454 246.555 177.154 256.192 186.65 265.01C187.97 266.24 189.96 264.26 188.65 263.01C179.317 254.367 170.761 244.92 163.08 234.78C162.01 233.36 159.58 234.78 160.67 236.19L160.65 236.21Z" fill="#FF0831"/>
<path d="M163.54 263.84C169.44 253.35 179.77 244.4 189.54 237.55C191 236.55 189.61 234.09 188.13 235.13C177.97 242.27 167.29 251.49 161.13 262.42C160.961 262.738 160.921 263.11 161.019 263.457C161.117 263.804 161.345 264.1 161.656 264.283C161.966 264.466 162.336 264.522 162.687 264.439C163.038 264.357 163.343 264.142 163.54 263.84Z" fill="#FF0831"/>
<g opacity="0.2">
<path d="M160.65 236.21C168.454 246.555 177.154 256.192 186.65 265.01C187.97 266.24 189.96 264.26 188.65 263.01C179.317 254.367 170.761 244.92 163.08 234.78C162.01 233.36 159.58 234.78 160.67 236.19L160.65 236.21Z" fill="black"/>
<path d="M163.54 263.84C169.44 253.35 179.77 244.4 189.54 237.55C191 236.55 189.61 234.09 188.13 235.13C177.97 242.27 167.29 251.49 161.13 262.42C160.961 262.738 160.921 263.11 161.019 263.457C161.117 263.804 161.345 264.1 161.656 264.283C161.966 264.466 162.336 264.522 162.687 264.439C163.038 264.357 163.343 264.142 163.54 263.84Z" fill="black"/>
</g>
<path d="M271.87 245.16H290.12C290.469 245.13 290.795 244.971 291.033 244.712C291.27 244.454 291.402 244.116 291.402 243.765C291.402 243.414 291.27 243.076 291.033 242.818C290.795 242.559 290.469 242.4 290.12 242.37H271.87C271.52 242.4 271.195 242.559 270.957 242.818C270.72 243.076 270.588 243.414 270.588 243.765C270.588 244.116 270.72 244.454 270.957 244.712C271.195 244.971 271.52 245.13 271.87 245.16Z" fill="#FF0831"/>
<path d="M271.66 250.35H282.24C282.611 250.35 282.967 250.202 283.23 249.94C283.493 249.677 283.64 249.321 283.64 248.95C283.64 248.579 283.493 248.223 283.23 247.96C282.967 247.698 282.611 247.55 282.24 247.55H271.66C271.289 247.55 270.933 247.698 270.67 247.96C270.407 248.223 270.26 248.579 270.26 248.95C270.26 249.321 270.407 249.677 270.67 249.94C270.933 250.202 271.289 250.35 271.66 250.35Z" fill="#FF0831"/>
<g opacity="0.1">
<path d="M271.87 245.16H290.12C290.469 245.13 290.795 244.971 291.033 244.712C291.27 244.454 291.402 244.116 291.402 243.765C291.402 243.414 291.27 243.076 291.033 242.818C290.795 242.559 290.469 242.4 290.12 242.37H271.87C271.52 242.4 271.195 242.559 270.957 242.818C270.72 243.076 270.588 243.414 270.588 243.765C270.588 244.116 270.72 244.454 270.957 244.712C271.195 244.971 271.52 245.13 271.87 245.16Z" fill="#FAFAFA"/>
<path d="M271.66 250.35H282.24C282.611 250.35 282.967 250.202 283.23 249.94C283.493 249.677 283.64 249.321 283.64 248.95C283.64 248.579 283.493 248.223 283.23 247.96C282.967 247.698 282.611 247.55 282.24 247.55H271.66C271.289 247.55 270.933 247.698 270.67 247.96C270.407 248.223 270.26 248.579 270.26 248.95C270.26 249.321 270.407 249.677 270.67 249.94C270.933 250.202 271.289 250.35 271.66 250.35Z" fill="#FAFAFA"/>
</g>
<path d="M162.56 316.8H178.21C178.581 316.8 178.937 316.653 179.2 316.39C179.462 316.127 179.61 315.771 179.61 315.4C179.61 315.029 179.462 314.673 179.2 314.41C178.937 314.148 178.581 314 178.21 314H162.56C162.189 314 161.833 314.148 161.57 314.41C161.307 314.673 161.16 315.029 161.16 315.4C161.16 315.771 161.307 316.127 161.57 316.39C161.833 316.653 162.189 316.8 162.56 316.8Z" fill="#FF0831"/>
<path d="M162 322.81H182.3C182.671 322.81 183.027 322.663 183.29 322.4C183.553 322.137 183.7 321.781 183.7 321.41C183.7 321.039 183.553 320.683 183.29 320.42C183.027 320.157 182.671 320.01 182.3 320.01H162C161.629 320.01 161.273 320.157 161.01 320.42C160.748 320.683 160.6 321.039 160.6 321.41C160.6 321.781 160.748 322.137 161.01 322.4C161.273 322.663 161.629 322.81 162 322.81Z" fill="#FF0831"/>
<path d="M162 329H172.15C172.521 329 172.877 328.852 173.14 328.59C173.403 328.327 173.55 327.971 173.55 327.6C173.55 327.229 173.403 326.873 173.14 326.61C172.877 326.347 172.521 326.2 172.15 326.2H162C161.629 326.2 161.273 326.347 161.01 326.61C160.748 326.873 160.6 327.229 160.6 327.6C160.6 327.971 160.748 328.327 161.01 328.59C161.273 328.852 161.629 329 162 329Z" fill="#FF0831"/>
<g opacity="0.1">
<path d="M162.56 316.8H178.21C178.581 316.8 178.938 316.653 179.2 316.39C179.463 316.127 179.61 315.771 179.61 315.4C179.61 315.029 179.463 314.673 179.2 314.41C178.938 314.148 178.581 314 178.21 314H162.56C162.189 314 161.833 314.148 161.57 314.41C161.308 314.673 161.16 315.029 161.16 315.4C161.16 315.771 161.308 316.127 161.57 316.39C161.833 316.653 162.189 316.8 162.56 316.8Z" fill="#FAFAFA"/>
<path d="M162 322.81H182.3C182.671 322.81 183.027 322.663 183.29 322.4C183.553 322.137 183.7 321.781 183.7 321.41C183.7 321.039 183.553 320.683 183.29 320.42C183.027 320.157 182.671 320.01 182.3 320.01H162C161.629 320.01 161.273 320.157 161.01 320.42C160.748 320.683 160.6 321.039 160.6 321.41C160.6 321.781 160.748 322.137 161.01 322.4C161.273 322.663 161.629 322.81 162 322.81Z" fill="#FAFAFA"/>
<path d="M162 329H172.15C172.521 329 172.877 328.852 173.14 328.59C173.403 328.327 173.55 327.971 173.55 327.6C173.55 327.229 173.403 326.873 173.14 326.61C172.877 326.347 172.521 326.2 172.15 326.2H162C161.629 326.2 161.273 326.347 161.01 326.61C160.748 326.873 160.6 327.229 160.6 327.6C160.6 327.971 160.748 328.327 161.01 328.59C161.273 328.852 161.629 329 162 329Z" fill="#FAFAFA"/>
</g>
<path d="M52.1901 159.79L56.9201 159.58L54.7801 168.58C53.092 167.424 51.5536 166.064 50.2001 164.53C49.8097 164.071 49.616 163.477 49.6609 162.876C49.7058 162.275 49.9858 161.716 50.4401 161.32L52.1901 159.79Z" fill="#E4897B"/>
<path d="M62.41 164.43L60.29 171.75L54.78 168.56L56.92 159.58L62.41 164.43Z" fill="#E4897B"/>
<path d="M61.4774 120.974L51.7988 121.87L73.9971 361.614L83.6757 360.718L61.4774 120.974Z" fill="#FF0831"/>
<path opacity="0.3" d="M61.4774 120.974L51.7988 121.87L73.9971 361.614L83.6757 360.718L61.4774 120.974Z" fill="black"/>
<path d="M80.839 119.177L71.1604 120.073L93.3586 359.817L103.037 358.921L80.839 119.177Z" fill="#FF0831"/>
<path opacity="0.3" d="M80.839 119.177L71.1604 120.073L93.3586 359.817L103.037 358.921L80.839 119.177Z" fill="black"/>
<path d="M71.1632 120.075L61.4846 120.971L83.6828 360.716L93.3614 359.82L71.1632 120.075Z" fill="#FF0831"/>
<path opacity="0.1" d="M71.1632 120.075L61.4846 120.971L83.6828 360.716L93.3614 359.82L71.1632 120.075Z" fill="black"/>
<path d="M69.12 103.31L60.41 104.12L51.8 121.87L80.84 119.18L69.12 103.31Z" fill="#FF0831"/>
<g opacity="0.8">
<path d="M69.12 103.31L60.41 104.12L51.8 121.87L80.84 119.18L69.12 103.31Z" fill="#FAFAFA"/>
</g>
<path d="M64.1002 96.51L60.4102 104.12L69.1202 103.31L64.1002 96.51Z" fill="#263238"/>
<path d="M137.28 110.06C138.28 111.06 139.11 112.01 139.97 113.06C140.83 114.11 141.65 115.06 142.47 116.06C144.12 118.06 145.66 120.17 147.16 122.32C150.252 126.691 152.861 131.386 154.94 136.32C155.19 136.96 155.42 137.63 155.66 138.32L156.02 139.32C156.218 139.919 156.359 140.535 156.44 141.16C156.657 143.15 156.393 145.163 155.67 147.03C154.591 149.786 153.078 152.351 151.19 154.63C147.851 158.716 144.007 162.362 139.75 165.48L135.98 161.48C138.947 157.771 141.66 153.865 144.1 149.79C145.169 148.049 145.99 146.168 146.54 144.2C146.692 143.717 146.709 143.202 146.59 142.71L146.25 141.97C146.02 141.48 145.82 140.97 145.57 140.49C143.453 136.383 140.977 132.471 138.17 128.8C136.77 126.89 135.29 125.03 133.79 123.17C133.04 122.25 132.28 121.33 131.5 120.43L129.22 117.8L137.28 110.06Z" fill="#E4897B"/>
<path d="M129.93 164.53L134.19 172.96L138.36 169.37L134.94 163.38L129.93 164.53Z" fill="#E4897B"/>
<path d="M97.8401 115C95.2468 119.94 92.5534 124.823 89.7601 129.65C88.3901 132.08 86.9501 134.47 85.5501 136.88L83.4001 140.48L82.8601 141.38C82.5901 141.81 82.2901 142.32 82.0201 142.66C81.7501 143 81.4801 143.41 81.2201 143.72C80.9601 144.03 80.6801 144.38 80.4201 144.67C78.4 146.871 76.2495 148.948 73.9801 150.89C71.7901 152.76 69.6001 154.58 67.3401 156.31C62.8701 159.8 58.2801 163.05 53.5201 166.15L50.0901 161.83L61.9401 150.16C63.8801 148.16 65.8401 146.28 67.6901 144.3C69.5078 142.437 71.2205 140.474 72.8201 138.42C73.0134 138.18 73.1834 137.95 73.3301 137.73C73.5001 137.49 73.6201 137.29 73.7401 137.09C73.8435 136.929 73.937 136.762 74.0201 136.59L74.4801 135.66L76.3301 131.89C77.6001 129.4 78.8401 126.89 80.1301 124.42C82.6834 119.44 85.3501 114.517 88.1301 109.65L97.8401 115Z" fill="#E4897B"/>
<path d="M125.91 81.22C125.78 81.8 125.99 82.35 126.36 82.45C126.73 82.55 127.14 82.15 127.27 81.57C127.4 80.99 127.18 80.44 126.81 80.34C126.44 80.24 126 80.64 125.91 81.22Z" fill="#263238"/>
<path d="M125.93 82.34C126.243 84.2905 126.815 86.1905 127.63 87.99C127.17 88.1722 126.675 88.2514 126.181 88.222C125.687 88.1926 125.205 88.0554 124.77 87.82L125.93 82.34Z" fill="#DE5753"/>
<path d="M127.44 77.7C127.369 77.7002 127.299 77.6793 127.24 77.64C126.871 77.4143 126.452 77.2817 126.02 77.2539C125.588 77.226 125.155 77.3036 124.76 77.48C124.674 77.5137 124.578 77.5127 124.492 77.4773C124.406 77.4419 124.337 77.3748 124.3 77.29C124.266 77.2036 124.267 77.1076 124.303 77.0219C124.338 76.9362 124.405 76.8675 124.49 76.83C124.995 76.613 125.546 76.5214 126.094 76.5632C126.643 76.605 127.173 76.7789 127.64 77.07C127.678 77.0951 127.711 77.1276 127.736 77.1656C127.761 77.2035 127.778 77.2462 127.787 77.2909C127.795 77.3357 127.794 77.3817 127.785 77.4262C127.775 77.4707 127.756 77.5128 127.73 77.55C127.697 77.5967 127.654 77.6347 127.604 77.6609C127.553 77.687 127.497 77.7004 127.44 77.7Z" fill="#263238"/>
<path d="M105.68 83.43C106.94 88.81 108.37 98.65 104.75 102.24C104.75 102.24 106.43 107.69 116.42 107.69C127.42 107.69 121.42 102.24 121.42 102.24C115.37 100.81 115.35 96.36 116.23 92.19L105.68 83.43Z" fill="#E4897B"/>
<path d="M103.39 104.11C102.53 102.39 101.59 100.41 103.39 99.79C105.33 99.11 116.1 98.42 119.87 99.69C120.874 99.9587 121.735 100.608 122.269 101.5C122.803 102.393 122.968 103.458 122.73 104.47L103.39 104.11Z" fill="#FF0831"/>
<path opacity="0.6" d="M103.39 104.11C102.53 102.39 101.59 100.41 103.39 99.79C105.33 99.11 116.1 98.42 119.87 99.69C120.874 99.9587 121.735 100.608 122.269 101.5C122.803 102.393 122.968 103.458 122.73 104.47L103.39 104.11Z" fill="#FAFAFA"/>
<path d="M89 355C88.3544 354.997 87.711 354.926 87.08 354.79C87.0476 354.784 87.0177 354.769 86.9944 354.746C86.9712 354.722 86.9556 354.692 86.95 354.66C86.9433 354.626 86.9464 354.592 86.9588 354.56C86.9712 354.528 86.9924 354.5 87.02 354.48C87.1 354.42 89.02 353.04 90.14 353.28C90.2609 353.301 90.3757 353.349 90.476 353.42C90.5763 353.491 90.6596 353.583 90.72 353.69C90.81 353.81 90.8587 353.955 90.8587 354.105C90.8587 354.255 90.81 354.4 90.72 354.52C90.48 354.91 89.75 355 89 355ZM87.57 354.54C88.67 354.72 90.17 354.72 90.47 354.31C90.47 354.31 90.59 354.15 90.42 353.86C90.3833 353.796 90.3329 353.742 90.2723 353.7C90.2117 353.659 90.1426 353.631 90.07 353.62C89.1619 353.679 88.2917 354.006 87.57 354.56V354.54Z" fill="#FAFAFA"/>
<path d="M87.1201 354.82H87.0301C87.004 354.805 86.9827 354.783 86.9685 354.757C86.9544 354.73 86.948 354.7 86.9501 354.67C86.9501 354.58 87.0401 352.46 87.8701 351.76C87.9697 351.671 88.0873 351.604 88.215 351.564C88.3427 351.525 88.4775 351.513 88.6101 351.53C88.7449 351.53 88.8756 351.577 88.9796 351.663C89.0836 351.748 89.1545 351.868 89.1801 352C89.3401 352.82 87.9401 354.42 87.1801 354.83L87.1201 354.82ZM88.4901 351.82C88.3463 351.822 88.2079 351.875 88.1001 351.97C87.6096 352.642 87.3373 353.448 87.3201 354.28C88.0401 353.71 88.9301 352.5 88.8401 352.02C88.8401 351.97 88.8401 351.85 88.5701 351.82H88.4901Z" fill="#FAFAFA"/>
<path d="M133.12 355C132.362 355 131.605 354.93 130.86 354.79C130.825 354.784 130.793 354.768 130.768 354.742C130.742 354.717 130.726 354.685 130.72 354.65C130.714 354.615 130.719 354.58 130.733 354.548C130.747 354.516 130.771 354.489 130.8 354.47C131.17 354.26 134.43 352.39 135.22 353.68C135.299 353.793 135.342 353.927 135.342 354.065C135.342 354.203 135.299 354.337 135.22 354.45C135 354.89 134.06 355 133.12 355ZM131.41 354.53C132.79 354.73 134.65 354.7 134.97 354.25C134.97 354.25 135.07 354.11 134.92 353.86C134.48 353.15 132.5 354 131.41 354.55V354.53Z" fill="#FAFAFA"/>
<path d="M130.89 354.82C130.857 354.829 130.823 354.829 130.79 354.82C130.765 354.802 130.745 354.778 130.733 354.75C130.721 354.722 130.716 354.691 130.72 354.66C130.72 354.58 130.84 352.6 131.72 351.83C131.853 351.708 132.013 351.618 132.186 351.566C132.359 351.514 132.542 351.501 132.72 351.53C133.21 351.58 133.35 351.83 133.38 352.03C133.52 352.88 131.85 354.43 130.97 354.83L130.89 354.82ZM132.57 351.82C132.348 351.817 132.133 351.9 131.97 352.05C131.444 352.694 131.139 353.49 131.1 354.32C131.98 353.78 133.1 352.55 133.03 352.04C133.03 351.99 133.03 351.86 132.67 351.82H132.57Z" fill="#FAFAFA"/>
<path d="M122.81 354.64H130.16L130.23 337.63H122.89L122.81 354.64Z" fill="#E4897B"/>
<path d="M78.7 354.64H86.05L89.09 337.63H81.74L78.7 354.64Z" fill="#E4897B"/>
<path d="M86.5402 353.79H78.2902C78.1443 353.788 78.0026 353.838 77.8906 353.932C77.7787 354.025 77.7041 354.156 77.6802 354.3L76.4802 360.83C76.4555 360.992 76.4664 361.157 76.512 361.315C76.5576 361.472 76.6369 361.618 76.7444 361.741C76.8519 361.865 76.985 361.964 77.1345 362.031C77.284 362.098 77.4463 362.132 77.6102 362.13C80.4902 362.08 81.8802 361.91 85.5102 361.91C87.7402 361.91 92.3502 362.15 95.4402 362.15C98.5302 362.15 98.8002 359.15 97.5302 358.82C91.8202 357.58 89.6202 355.87 87.7502 354.25C87.4163 353.954 86.9861 353.791 86.5402 353.79Z" fill="#263238"/>
<path d="M130.08 353.79H122.08C121.934 353.788 121.792 353.838 121.681 353.932C121.569 354.025 121.494 354.156 121.47 354.3L120.27 360.83C120.242 360.991 120.25 361.156 120.293 361.313C120.336 361.471 120.414 361.617 120.52 361.741C120.626 361.865 120.758 361.964 120.906 362.032C121.055 362.099 121.217 362.132 121.38 362.13C124.27 362.08 128.44 361.91 132.08 361.91C136.34 361.91 140.02 362.15 145.01 362.15C148.01 362.15 148.74 359.15 147.47 358.82C141.67 357.56 136.97 357.43 131.89 354.37C131.353 354.011 130.726 353.811 130.08 353.79Z" fill="#263238"/>
<path d="M90.74 103.9C83.91 105.48 76.74 124.25 76.74 124.25L90.93 133.73C94.1878 128.79 97.0437 123.597 99.47 118.2C103.22 109.61 97.71 102.29 90.74 103.9Z" fill="#FF0831"/>
<path opacity="0.7" d="M90.74 103.9C83.91 105.48 76.74 124.25 76.74 124.25L90.93 133.73C94.1878 128.79 97.0437 123.597 99.47 118.2C103.22 109.61 97.71 102.29 90.74 103.9Z" fill="black"/>
<path d="M96.13 115.87L90.26 133.28L90.93 133.73C90.93 133.73 93.61 129.73 96.46 124.4L96.13 115.87Z" fill="#FF0831"/>
<path opacity="0.8" d="M96.13 115.87L90.26 133.28L90.93 133.73C90.93 133.73 93.61 129.73 96.46 124.4L96.13 115.87Z" fill="black"/>
<path d="M136.57 136.72C136.51 144.92 136.02 155.12 134.8 167.78H95.5C94.99 161.78 97.65 132.32 90.74 103.9C95.0625 103.062 99.4352 102.508 103.83 102.24C109.392 101.92 114.968 101.92 120.53 102.24C124.366 102.613 128.167 103.282 131.9 104.24C131.9 104.24 135.26 107.88 136.28 124.95C136.48 128.36 136.59 132.24 136.57 136.72Z" fill="#FF0831"/>
<path opacity="0.7" d="M136.57 136.72C136.51 144.92 136.02 155.12 134.8 167.78H95.5C94.99 161.78 97.65 132.32 90.74 103.9C95.0625 103.062 99.4352 102.508 103.83 102.24C109.392 101.92 114.968 101.92 120.53 102.24C124.366 102.613 128.167 103.282 131.9 104.24C131.9 104.24 135.26 107.88 136.28 124.95C136.48 128.36 136.59 132.24 136.57 136.72Z" fill="black"/>
<path d="M136.57 136.72C134.19 132.38 129.87 123.67 130.48 118.72L136.28 125C136.48 128.36 136.59 132.24 136.57 136.72Z" fill="#FF0831"/>
<path opacity="0.8" d="M136.57 136.72C134.19 132.38 129.87 123.67 130.48 118.72L136.28 125C136.48 128.36 136.59 132.24 136.57 136.72Z" fill="black"/>
<path d="M124.2 110.92C123.58 117.92 139.45 134.76 139.45 134.76L152.17 124.4C148.839 118.778 144.847 113.574 140.28 108.9C132.84 101.71 124.9 103.08 124.2 110.92Z" fill="#FF0831"/>
<path opacity="0.7" d="M124.2 110.92C123.58 117.92 139.45 134.76 139.45 134.76L152.17 124.4C148.839 118.778 144.847 113.574 140.28 108.9C132.84 101.71 124.9 103.08 124.2 110.92Z" fill="black"/>
<path d="M130.23 337.64L130.19 346.4H122.85L122.88 337.64H130.23Z" fill="#CE6F64"/>
<path d="M81.7402 337.64H89.0902L87.5202 346.4H80.1702L81.7402 337.64Z" fill="#CE6F64"/>
<path d="M107 75.15C105.93 82.39 104.94 86.55 107.72 91.15C108.604 92.6397 109.878 93.8591 111.406 94.6761C112.933 95.4931 114.655 95.8766 116.384 95.7849C118.114 95.6932 119.786 95.1299 121.218 94.156C122.65 93.1821 123.789 91.8348 124.51 90.26C127.38 84.26 128.66 73.42 122.35 68.84C121.019 67.8119 119.44 67.1525 117.773 66.9282C116.106 66.7039 114.409 66.9225 112.853 67.5621C111.297 68.2017 109.937 69.2396 108.909 70.5716C107.882 71.9037 107.224 73.4827 107 75.15Z" fill="#E4897B"/>
<path d="M128.75 71.72C126.586 72.902 124.205 73.6333 121.75 73.87C119.92 82.24 115.05 91.87 107.17 89.1C104.17 88.1 101.17 80.83 100.86 74.38C100.34 75.01 99.9902 75.83 99.7202 76.17C99.2705 73.3035 99.595 70.3689 100.66 67.67C102.84 61.49 104.29 65.59 106.66 61.84C108.19 59.36 110.91 58.08 115.66 57.92C114.33 58.61 114.08 59.72 116.05 59.56C118.02 59.4 126.43 58.94 131.33 62.25C128.02 63 130.04 68.25 134.46 65.45C132.85 68.06 130.85 70.54 128.75 71.72Z" fill="#263238"/>
<path d="M116.09 79.63C116.118 81.4711 116.735 83.2549 117.85 84.72C119.34 86.64 121.05 85.72 121.46 83.56C121.82 81.64 121.46 78.32 119.6 77.16C117.74 76 116.08 77.43 116.09 79.63Z" fill="#E4897B"/>
<path d="M107.13 62.62C106.132 62.5567 105.165 62.2502 104.312 61.7273C103.46 61.2044 102.749 60.481 102.24 59.62C102.24 59.62 102.11 65.48 107.13 62.62Z" fill="#1E2A4C"/>
<path d="M120.85 167.78C120.85 167.78 114.69 223.92 110.92 244.95C106.8 267.95 90.9202 344.71 90.9202 344.71H77.4202C77.4202 344.71 87.0002 269.84 89.0002 247C91.1502 222.25 95.5402 167.74 95.5402 167.74L120.85 167.78Z" fill="#FF0831"/>
<path opacity="0.6" d="M120.85 167.78C120.85 167.78 114.69 223.92 110.92 244.95C106.8 267.95 90.9202 344.71 90.9202 344.71H77.4202C77.4202 344.71 87.0002 269.84 89.0002 247C91.1502 222.25 95.5402 167.74 95.5402 167.74L120.85 167.78Z" fill="#FAFAFA"/>
<path d="M92.83 339.75C92.89 339.75 91.64 344.92 91.64 344.92H76.51L76.61 340.31L92.83 339.75Z" fill="#FF0831"/>
<path opacity="0.1" d="M92.83 339.75C92.89 339.75 91.64 344.92 91.64 344.92H76.51L76.61 340.31L92.83 339.75Z" fill="#FAFAFA"/>
<path d="M116.36 187.78C106.79 189.67 109.2 225.62 111.07 244.11C113.35 231.04 116.45 205.89 118.54 188.04C117.863 187.71 117.095 187.619 116.36 187.78Z" fill="#FF0831"/>
<path opacity="0.4" d="M116.36 187.78C106.79 189.67 109.2 225.62 111.07 244.11C113.35 231.04 116.45 205.89 118.54 188.04C117.863 187.71 117.095 187.619 116.36 187.78Z" fill="#FAFAFA"/>
<path d="M134.79 167.78C134.79 167.78 137.93 222.7 137.99 245.11C138.06 268.41 132.87 344.71 132.87 344.71H120.42C120.42 344.71 117.07 269.77 115.63 246.89C114.07 221.94 108.96 167.78 108.96 167.78H134.79Z" fill="#FF0831"/>
<path opacity="0.6" d="M134.79 167.78C134.79 167.78 137.93 222.7 137.99 245.11C138.06 268.41 132.87 344.71 132.87 344.71H120.42C120.42 344.71 117.07 269.77 115.63 246.89C114.07 221.94 108.96 167.78 108.96 167.78H134.79Z" fill="#FAFAFA"/>
<path d="M137.8 160.72L134.31 161C134.026 161.024 133.75 161.111 133.504 161.254C133.257 161.398 133.046 161.595 132.885 161.83C132.724 162.066 132.618 162.335 132.574 162.616C132.53 162.898 132.549 163.187 132.63 163.46L134.07 168.31C134.192 168.704 134.407 169.063 134.697 169.356C134.987 169.649 135.343 169.868 135.736 169.994C136.129 170.119 136.546 170.148 136.953 170.078C137.359 170.008 137.742 169.84 138.07 169.59C139.873 167.912 141.166 165.76 141.8 163.38L137.8 160.72Z" fill="#E4897B"/>
<path d="M129.92 335.77C129.886 335.765 129.856 335.748 129.834 335.723C129.812 335.697 129.8 335.664 129.8 335.63C131.18 314.52 134.38 263.43 134.32 245.11C134.32 226.36 132.04 184.42 131.32 172.01C131.319 171.993 131.321 171.977 131.326 171.961C131.332 171.945 131.34 171.931 131.351 171.919C131.363 171.906 131.376 171.897 131.392 171.89C131.407 171.883 131.423 171.88 131.44 171.88C131.473 171.88 131.505 171.892 131.529 171.914C131.553 171.937 131.568 171.967 131.57 172C132.25 184.41 134.48 226.35 134.57 245.11C134.63 263.44 131.43 314.53 130.05 335.65C130.05 335.667 130.047 335.683 130.04 335.698C130.033 335.714 130.024 335.727 130.011 335.739C129.999 335.75 129.985 335.759 129.969 335.764C129.953 335.769 129.937 335.771 129.92 335.77Z" fill="#FF0831"/>
<path opacity="0.3" d="M129.92 335.77C129.886 335.765 129.856 335.748 129.834 335.723C129.812 335.697 129.8 335.664 129.8 335.63C131.18 314.52 134.38 263.43 134.32 245.11C134.32 226.36 132.04 184.42 131.32 172.01C131.319 171.993 131.321 171.977 131.326 171.961C131.332 171.945 131.34 171.931 131.351 171.919C131.363 171.906 131.376 171.897 131.392 171.89C131.407 171.883 131.423 171.88 131.44 171.88C131.473 171.88 131.505 171.892 131.529 171.914C131.553 171.937 131.568 171.967 131.57 172C132.25 184.41 134.48 226.35 134.57 245.11C134.63 263.44 131.43 314.53 130.05 335.65C130.05 335.667 130.047 335.683 130.04 335.698C130.033 335.714 130.024 335.727 130.011 335.739C129.999 335.75 129.985 335.759 129.969 335.764C129.953 335.769 129.937 335.771 129.92 335.77Z" fill="#FAFAFA"/>
<path d="M135.07 339.75C135.13 339.75 134.57 344.92 134.57 344.92H119.43L118.84 340.31L135.07 339.75Z" fill="#FF0831"/>
<path opacity="0.1" d="M135.07 339.75C135.13 339.75 134.57 344.92 134.57 344.92H119.43L118.84 340.31L135.07 339.75Z" fill="#FAFAFA"/>
</g>
<defs>
<clipPath id="clip0_10_1945">
<rect width="421" height="372" fill="white"/>
</clipPath>
</defs>
</svg>
