<svg width="581" height="856" viewBox="0 0 581 856" fill="none" xmlns="http://www.w3.org/2000/svg">
<path d="M185.307 248.077L180.719 250.488L181.595 245.38L177.883 241.762L183.012 241.017L185.307 236.368L187.601 241.017L192.73 241.762L189.018 245.38L189.895 250.488L185.307 248.077Z" fill="#FF0831"/>
<path d="M207.602 10.7319L203.997 12.6267L204.686 8.61283L201.768 5.7703L205.799 5.18463L207.602 1.5322L209.404 5.18463L213.434 5.7703L210.518 8.61283L211.207 12.6267L207.602 10.7319Z" fill="#FF0831"/>
<path d="M242.637 362.271C240.292 362.271 238.39 360.37 238.39 358.025C238.39 355.679 240.292 353.778 242.637 353.778C244.983 353.778 246.884 355.679 246.884 358.025C246.884 360.37 244.983 362.271 242.637 362.271Z" fill="#FF0831"/>
<g clip-path="url(#clip0_10_394)">
<path d="M209.983 195.516C208.603 195.516 207.483 194.397 207.483 193.016C207.483 191.636 208.603 190.516 209.983 190.516C211.364 190.516 212.483 191.636 212.483 193.016C212.483 194.397 211.364 195.516 209.983 195.516Z" fill="#FF0831"/>
</g>
<path d="M256.99 261.884C253.765 261.884 251.151 259.27 251.151 256.045C251.151 252.82 253.765 250.206 256.99 250.206C260.215 250.206 262.83 252.82 262.83 256.045C262.83 259.27 260.215 261.884 256.99 261.884Z" fill="#FF0831"/>
<g clip-path="url(#clip1_10_394)">
<path d="M219.98 131.086C218.807 131.086 217.856 130.136 217.856 128.963C217.856 127.79 218.807 126.84 219.98 126.84C221.152 126.84 222.103 127.79 222.103 128.963C222.103 130.136 221.152 131.086 219.98 131.086Z" fill="#FF0831"/>
</g>
<g clip-path="url(#clip2_10_394)">
<path d="M262.461 172.199C260.409 172.199 258.745 170.535 258.745 168.483C258.745 166.431 260.409 164.767 262.461 164.767C264.513 164.767 266.177 166.431 266.177 168.483C266.177 170.535 264.513 172.199 262.461 172.199Z" fill="#FF0831"/>
</g>
<g clip-path="url(#clip3_10_394)">
<path d="M124.154 241.446C122.395 241.446 120.969 240.02 120.969 238.261C120.969 236.502 122.395 235.076 124.154 235.076C125.913 235.076 127.339 236.502 127.339 238.261C127.339 240.02 125.913 241.446 124.154 241.446Z" fill="#FF0831"/>
</g>
<path d="M279.653 111.078V107.096C279.653 106.885 279.569 106.683 279.42 106.533C279.271 106.384 279.068 106.3 278.857 106.3C278.646 106.3 278.443 106.384 278.294 106.533C278.145 106.683 278.061 106.885 278.061 107.096V111.078H274.079C273.868 111.078 273.666 111.161 273.516 111.311C273.367 111.46 273.283 111.663 273.283 111.874C273.283 112.085 273.367 112.287 273.516 112.437C273.666 112.586 273.868 112.67 274.079 112.67H278.061V116.651C278.061 116.862 278.145 117.065 278.294 117.214C278.443 117.364 278.646 117.448 278.857 117.448C279.068 117.448 279.271 117.364 279.42 117.214C279.569 117.065 279.653 116.862 279.653 116.651V112.67H283.635C283.846 112.67 284.048 112.586 284.198 112.437C284.347 112.287 284.431 112.085 284.431 111.874C284.431 111.663 284.347 111.46 284.198 111.311C284.048 111.161 283.846 111.078 283.635 111.078H279.653Z" fill="#FF0831"/>
<path d="M243.232 57.0757V54.9523C243.232 54.8397 243.187 54.7317 243.107 54.6521C243.028 54.5724 242.92 54.5277 242.807 54.5277C242.694 54.5277 242.586 54.5724 242.507 54.6521C242.427 54.7317 242.382 54.8397 242.382 54.9523V57.0757H240.259C240.146 57.0757 240.038 57.1204 239.959 57.2001C239.879 57.2797 239.834 57.3877 239.834 57.5004C239.834 57.613 239.879 57.721 239.959 57.8007C240.038 57.8803 240.146 57.925 240.259 57.925H242.382V60.0484C242.382 60.161 242.427 60.269 242.507 60.3487C242.586 60.4283 242.694 60.4731 242.807 60.4731C242.92 60.4731 243.028 60.4283 243.107 60.3487C243.187 60.269 243.232 60.161 243.232 60.0484V57.925H245.355C245.468 57.925 245.576 57.8803 245.655 57.8007C245.735 57.721 245.78 57.613 245.78 57.5004C245.78 57.3877 245.735 57.2797 245.655 57.2001C245.576 57.1204 245.468 57.0757 245.355 57.0757H243.232Z" fill="#FF0831"/>
<path d="M264.693 498.841V496.718C264.693 496.605 264.648 496.497 264.568 496.418C264.489 496.338 264.38 496.293 264.268 496.293C264.155 496.293 264.047 496.338 263.968 496.418C263.888 496.497 263.843 496.605 263.843 496.718V498.841H261.72C261.607 498.841 261.499 498.886 261.42 498.966C261.34 499.045 261.295 499.153 261.295 499.266C261.295 499.379 261.34 499.487 261.42 499.566C261.499 499.646 261.607 499.691 261.72 499.691H263.843V501.814C263.843 501.927 263.888 502.035 263.968 502.114C264.047 502.194 264.155 502.239 264.268 502.239C264.38 502.239 264.489 502.194 264.568 502.114C264.648 502.035 264.693 501.927 264.693 501.814V499.691H266.816C266.929 499.691 267.037 499.646 267.116 499.566C267.196 499.487 267.241 499.379 267.241 499.266C267.241 499.153 267.196 499.045 267.116 498.966C267.037 498.886 266.929 498.841 266.816 498.841H264.693Z" fill="#FF0831"/>
<path fill-rule="evenodd" clip-rule="evenodd" d="M32.9314 412.719L142.957 309.115L214.602 292.489L283.691 306.56L361.727 292.489L450.009 323.186L512.7 379.467L537.007 402.488L479.433 483.068L419.308 568.765L393.713 648.066L370.689 691.554L327.19 733.763L306.72 743.994L290.09 740.151L149.356 668.529L32.9314 412.719Z" fill="black" stroke="#CA3132" stroke-width="12.9698" stroke-miterlimit="2.613"/>
<path fill-rule="evenodd" clip-rule="evenodd" d="M296.383 247.402C296.383 247.402 274.651 162.047 179.958 221.023C179.958 221.023 152.79 237.319 122.521 286.204C110.107 358.364 16.9648 408.804 16.9648 408.804C16.9648 408.804 1.44176 418.891 17.7419 434.41C17.7419 434.41 98.4615 484.846 45.6871 537.609C45.6871 537.609 -20.2867 650.902 20.0732 755.655C65.0918 852.644 155.125 847.993 155.125 847.993C155.125 847.993 195.485 856.522 231.967 823.937C328.21 747.114 342.182 657.877 342.182 657.877C342.182 657.877 377.114 518.208 472.576 430.524C502.071 410.35 467.917 413.455 467.917 413.455C467.917 413.455 444.63 411.904 435.317 391.726C431.439 391.726 425.226 392.504 425.226 392.504C425.226 392.504 406.598 416.559 388.747 397.936C349.169 441.389 282.414 431.302 282.414 431.302L262.232 432.079C262.232 432.079 173.749 487.173 140.376 649.34C124.853 602.009 162.885 531.399 162.885 531.399C162.885 531.399 211.004 446.825 228.081 428.201C193.154 427.424 176.077 404.145 176.077 404.145L84.4927 466.999L51.8963 425.096C51.8963 425.096 39.4779 419.664 57.3284 406.472C75.1789 393.284 134.17 340.518 134.17 340.518C134.17 340.518 173.753 298.615 222.653 324.998C263.013 360.692 313.464 328.103 313.464 328.103C313.464 328.103 367.023 299.392 392.633 329.653C421.352 359.915 452.398 394.058 452.398 394.058C452.398 394.058 465.597 407.246 488.106 404.145C505.957 407.249 513.716 407.249 513.716 407.249C513.716 407.249 436.878 491.828 436.878 495.706C436.878 499.584 409.714 526.744 395.741 565.539C377.114 603.563 357.709 683.487 357.709 683.487C357.709 683.487 334.669 723.816 306.728 743.991C343.206 742.437 400.4 692.801 400.4 692.801C400.4 692.801 434.547 648.563 450.074 582.612C468.701 506.566 566.498 410.35 566.498 410.35C566.498 410.35 585.126 391.726 563.39 387.849C563.39 387.849 496.647 371.556 465.601 262.918C465.601 262.918 453.178 210.151 412.042 199.29C333.638 194.639 296.383 247.402 296.383 247.402Z" fill="#CA3132" stroke="#CA3132" stroke-width="12.9698" stroke-miterlimit="2.613"/>
<path fill-rule="evenodd" clip-rule="evenodd" d="M173.719 368.982C173.719 368.982 155.091 383.724 143.45 375.965C116.282 364.323 136.464 344.149 136.464 344.149C136.464 344.149 152.764 328.63 182.259 324.748C217.187 325.525 241.247 346.477 241.247 346.477C241.247 346.477 266.861 366.651 297.133 348.804C327.398 327.079 356.121 326.299 356.121 326.299C356.121 326.299 378.63 326.299 394.153 341.822C424.418 368.201 423.641 385.275 423.641 385.275C423.641 385.275 430.631 391.484 414.327 400.794C400.355 412.431 387.94 398.466 387.94 398.466C387.94 398.466 373.967 382.174 374.748 379.843C375.525 377.515 356.121 401.567 326.625 406.222C297.137 410.881 278.506 389.93 278.506 389.93C278.506 389.93 276.178 376.738 261.429 388.379C242.024 412.431 203.995 401.567 203.995 401.567C203.995 401.567 179.155 392.261 173.719 368.982ZM212.649 255.253C212.649 255.253 179.276 282.41 187.036 242.838C206.444 207.918 233.608 209.472 233.608 209.472C233.608 209.472 265.431 210.249 269.313 233.528C275.519 256.807 256.118 270.772 256.118 270.772C256.118 270.772 242.922 281.636 231.281 261.462C225.845 245.166 212.649 255.253 212.649 255.253ZM362.952 259.362C362.952 259.362 334.241 282.645 335.018 245.393C344.131 225.211 366.841 219.01 366.841 219.01C366.841 219.01 404.873 210.477 417.292 232.201C417.292 232.201 425.051 246.944 420.392 255.48C407.978 284.965 389.35 269.449 389.35 269.449C389.35 269.449 381.591 264.017 380.814 260.135C375.374 246.947 362.952 259.362 362.952 259.362ZM174.647 455.706C174.647 455.706 47.3588 548.818 56.6726 668.32C59.7734 696.247 76.8506 695.477 76.8506 695.477C76.8506 695.477 93.1507 698.578 97.0286 667.543C100.91 636.501 110.224 546.49 180.853 474.326C190.944 473.553 190.167 463.466 190.167 463.466C190.167 463.466 192.498 444.065 174.647 455.706ZM365.044 452.689C365.044 452.689 329.343 479.849 288.979 572.184C288.979 572.184 277.338 593.912 275.788 604.776C252.505 688.578 235.428 697.115 235.428 697.115C235.428 697.115 211.368 732.031 236.982 749.881C275.788 759.965 286.656 717.289 286.656 717.289C286.656 717.289 327.012 571.414 330.893 562.878C344.093 526.407 379.017 479.849 379.017 479.849C379.017 479.849 404.634 471.313 393.766 456.567C390.654 436.396 365.044 452.689 365.044 452.689Z" fill="white" stroke="white" stroke-width="12.9698" stroke-miterlimit="2.613"/>
<defs>
<clipPath id="clip0_10_394">
<rect width="6" height="6" fill="white" transform="translate(206.983 190)"/>
</clipPath>
<clipPath id="clip1_10_394">
<rect width="5.09605" height="5.09605" fill="white" transform="translate(217.432 126.401)"/>
</clipPath>
<clipPath id="clip2_10_394">
<rect width="8.91808" height="8.91808" fill="white" transform="translate(258.002 164)"/>
</clipPath>
<clipPath id="clip3_10_394">
<rect width="7.64407" height="7.64407" fill="white" transform="translate(120.332 234.418)"/>
</clipPath>
</defs>
</svg>
